<svg xmlns="http://www.w3.org/2000/svg" xmlns:xlink="http://www.w3.org/1999/xlink" viewBox="0 0 906.19 517.74">
  <defs>
    <linearGradient id="linear-gradient" x1="-104.53" y1="516.46" x2="-104.53" y2="360.63" gradientUnits="userSpaceOnUse">
      <stop offset="0" stop-color="#f2a86c"/>
      <stop offset="1" stop-color="#b04652"/>
    </linearGradient>
    <linearGradient id="linear-gradient-2" x1="5259.57" y1="504.08" x2="5259.57" y2="340.24" gradientTransform="matrix(-1 0 0 1 5283.66 0)" xlink:href="#linear-gradient"/>
    <linearGradient id="linear-gradient-3" x1="5293.9" y1="504.08" x2="5293.9" y2="340.24" gradientTransform="matrix(-1 0 0 1 5283.66 0)" xlink:href="#linear-gradient"/>
    <linearGradient id="linear-gradient-4" x1="5276.73" y1="504.08" x2="5276.73" y2="340.24" gradientTransform="matrix(-1 0 0 1 5283.66 0)" xlink:href="#linear-gradient"/>
    <linearGradient id="linear-gradient-5" x1="5276.73" y1="504.08" x2="5276.73" y2="340.24" gradientTransform="matrix(-1 0 0 1 5283.66 0)" xlink:href="#linear-gradient"/>
    <linearGradient id="linear-gradient-6" x1="5276.73" y1="504.08" x2="5276.73" y2="340.25" gradientTransform="matrix(-1 0 0 1 5283.66 0)" xlink:href="#linear-gradient"/>
    <linearGradient id="linear-gradient-7" x1="5276.73" y1="504.08" x2="5276.73" y2="340.25" gradientTransform="matrix(-1 0 0 1 5283.66 0)" xlink:href="#linear-gradient"/>
    <linearGradient id="linear-gradient-8" x1="5276.73" y1="504.08" x2="5276.73" y2="340.25" gradientTransform="matrix(-1 0 0 1 5283.66 0)" xlink:href="#linear-gradient"/>
    <linearGradient id="linear-gradient-9" x1="5276.73" y1="504.08" x2="5276.73" y2="340.25" gradientTransform="matrix(-1 0 0 1 5283.66 0)" xlink:href="#linear-gradient"/>
    <linearGradient id="linear-gradient-10" x1="5276.73" y1="504.08" x2="5276.73" y2="340.24" gradientTransform="matrix(-1 0 0 1 5283.66 0)" xlink:href="#linear-gradient"/>
    <linearGradient id="linear-gradient-11" x1="5276.73" y1="504.08" x2="5276.73" y2="340.24" gradientTransform="matrix(-1 0 0 1 5283.66 0)" xlink:href="#linear-gradient"/>
    <linearGradient id="linear-gradient-12" x1="5276.73" y1="504.08" x2="5276.73" y2="340.24" gradientTransform="matrix(-1 0 0 1 5283.66 0)" xlink:href="#linear-gradient"/>
    <linearGradient id="linear-gradient-13" x1="5276.73" y1="504.08" x2="5276.73" y2="340.24" gradientTransform="matrix(-1 0 0 1 5283.66 0)" xlink:href="#linear-gradient"/>
    <linearGradient id="linear-gradient-14" x1="5276.73" y1="504.08" x2="5276.73" y2="340.24" gradientTransform="matrix(-1 0 0 1 5283.66 0)" xlink:href="#linear-gradient"/>
    <linearGradient id="linear-gradient-15" x1="5276.75" y1="504.08" x2="5276.75" y2="340.24" gradientTransform="matrix(-1 0 0 1 5283.66 0)" xlink:href="#linear-gradient"/>
    <linearGradient id="linear-gradient-16" x1="5276.73" y1="504.08" x2="5276.73" y2="340.24" gradientTransform="matrix(-1 0 0 1 5283.66 0)" xlink:href="#linear-gradient"/>
    <linearGradient id="linear-gradient-18" x1="5276.73" y1="504.08" x2="5276.73" y2="340.24" gradientTransform="matrix(-1 0 0 1 5283.66 0)" xlink:href="#linear-gradient"/>
    <linearGradient id="linear-gradient-20" x1="5276.73" y1="504.08" x2="5276.73" y2="340.24" gradientTransform="matrix(-1 0 0 1 5283.66 0)" xlink:href="#linear-gradient"/>
    <linearGradient id="linear-gradient-22" x1="5276.73" y1="504.08" x2="5276.73" y2="340.24" gradientTransform="matrix(-1 0 0 1 5283.66 0)" xlink:href="#linear-gradient"/>
    <linearGradient id="linear-gradient-26" x1="5276.73" y1="504.08" x2="5276.73" y2="340.24" gradientTransform="matrix(-1 0 0 1 5283.66 0)" xlink:href="#linear-gradient"/>
    <linearGradient id="linear-gradient-30" x1="5276.73" y1="504.08" x2="5276.73" y2="340.24" gradientTransform="matrix(-1 0 0 1 5283.66 0)" xlink:href="#linear-gradient"/>
    <linearGradient id="linear-gradient-32" x1="5270.21" y1="504.08" x2="5270.21" y2="340.24" gradientTransform="matrix(-1 0 0 1 5283.66 0)" xlink:href="#linear-gradient"/>
    <linearGradient id="linear-gradient-33" x1="5283.26" y1="504.08" x2="5283.26" y2="340.24" gradientTransform="matrix(-1 0 0 1 5283.66 0)" xlink:href="#linear-gradient"/>
    <linearGradient id="linear-gradient-34" x1="5276.73" y1="504.08" x2="5276.73" y2="340.24" gradientTransform="matrix(-1 0 0 1 5283.66 0)" xlink:href="#linear-gradient"/>
    <linearGradient id="linear-gradient-35" x1="5276.73" y1="504.08" x2="5276.73" y2="340.24" gradientTransform="matrix(-1 0 0 1 5283.66 0)" xlink:href="#linear-gradient"/>
    <linearGradient id="linear-gradient-36" x1="5276.73" y1="504.08" x2="5276.73" y2="340.24" gradientTransform="matrix(-1 0 0 1 5283.66 0)" xlink:href="#linear-gradient"/>
    <linearGradient id="linear-gradient-37" x1="5276.73" y1="504.08" x2="5276.73" y2="340.24" gradientTransform="matrix(-1 0 0 1 5283.66 0)" xlink:href="#linear-gradient"/>
    <linearGradient id="linear-gradient-38" x1="5276.73" y1="504.08" x2="5276.73" y2="340.24" gradientTransform="matrix(-1 0 0 1 5283.66 0)" xlink:href="#linear-gradient"/>
    <linearGradient id="linear-gradient-39" x1="5276.73" y1="504.09" x2="5276.73" y2="340.23" gradientTransform="matrix(-1 0 0 1 5283.66 0)" xlink:href="#linear-gradient"/>
    <linearGradient id="linear-gradient-40" x1="5276.75" y1="504.08" x2="5276.75" y2="340.24" gradientTransform="matrix(-1 0 0 1 5283.66 0)" xlink:href="#linear-gradient"/>
    <linearGradient id="linear-gradient-41" x1="5262.34" y1="504.08" x2="5262.34" y2="340.24" gradientTransform="matrix(-1 0 0 1 5283.66 0)" xlink:href="#linear-gradient"/>
    <linearGradient id="linear-gradient-42" x1="5262.34" y1="504.08" x2="5262.34" y2="340.24" gradientTransform="matrix(-1 0 0 1 5283.66 0)" xlink:href="#linear-gradient"/>
    <linearGradient id="linear-gradient-43" x1="5254.82" y1="504.09" x2="5254.82" y2="340.24" gradientTransform="matrix(-1 0 0 1 5283.66 0)" xlink:href="#linear-gradient"/>
    <linearGradient id="linear-gradient-44" x1="5260.7" y1="504.08" x2="5260.7" y2="340.24" gradientTransform="matrix(-1 0 0 1 5283.66 0)" xlink:href="#linear-gradient"/>
    <linearGradient id="linear-gradient-45" x1="5266.59" y1="504.08" x2="5266.59" y2="340.24" gradientTransform="matrix(-1 0 0 1 5283.66 0)" xlink:href="#linear-gradient"/>
    <linearGradient id="linear-gradient-46" x1="5272.47" y1="504.08" x2="5272.47" y2="340.24" gradientTransform="matrix(-1 0 0 1 5283.66 0)" xlink:href="#linear-gradient"/>
    <linearGradient id="linear-gradient-47" x1="5272.58" y1="504.08" x2="5272.58" y2="340.24" gradientTransform="matrix(-1 0 0 1 5283.66 0)" xlink:href="#linear-gradient"/>
    <linearGradient id="linear-gradient-48" x1="5275.28" y1="504.08" x2="5275.28" y2="340.24" gradientTransform="matrix(-1 0 0 1 6000.42 -66.15)" xlink:href="#linear-gradient"/>
    <linearGradient id="linear-gradient-49" x1="5275.51" y1="504.08" x2="5275.51" y2="340.24" gradientTransform="matrix(-1 0 0 1 6000.42 -66.15)" xlink:href="#linear-gradient"/>
    <linearGradient id="linear-gradient-50" x1="5272.86" y1="504.08" x2="5272.86" y2="340.24" gradientTransform="matrix(-1 0 0 1 6000.42 -66.15)" xlink:href="#linear-gradient"/>
    <linearGradient id="linear-gradient-51" x1="5280.09" y1="504.08" x2="5280.09" y2="340.24" gradientTransform="matrix(-1 0 0 1 5283.66 0)" xlink:href="#linear-gradient"/>
    <linearGradient id="linear-gradient-52" x1="5277.39" y1="504.08" x2="5277.39" y2="340.24" gradientTransform="matrix(-1 0 0 1 6000.42 -66.15)" xlink:href="#linear-gradient"/>
    <linearGradient id="linear-gradient-53" x1="5277.16" y1="504.08" x2="5277.16" y2="340.24" gradientTransform="matrix(-1 0 0 1 6000.42 -66.15)" xlink:href="#linear-gradient"/>
    <linearGradient id="linear-gradient-54" x1="5279.81" y1="504.08" x2="5279.81" y2="340.24" gradientTransform="matrix(-1 0 0 1 5283.66 0)" xlink:href="#linear-gradient"/>
    <linearGradient id="linear-gradient-55" x1="-577.64" y1="451.24" x2="-577.64" y2="406.34" xlink:href="#linear-gradient"/>
    <linearGradient id="linear-gradient-56" x1="4680.15" y1="451.24" x2="4680.15" y2="406.34" gradientTransform="matrix(-1 0 0 1 4730.4 0)" xlink:href="#linear-gradient"/>
    <linearGradient id="linear-gradient-57" x1="-441.2" y1="483.66" x2="-441.2" y2="333.26" xlink:href="#linear-gradient"/>
    <linearGradient id="linear-gradient-58" x1="443.93" y1="46.94" x2="464.68" y2="46.94" gradientUnits="userSpaceOnUse">
      <stop offset="0" stop-color="ivory"/>
      <stop offset=".13" stop-color="#fcfaea"/>
      <stop offset=".32" stop-color="#f4edd8"/>
      <stop offset=".53" stop-color="#e7d7bb"/>
      <stop offset=".72" stop-color="#d9bf9b"/>
      <stop offset=".77" stop-color="#dbc5a2"/>
      <stop offset=".85" stop-color="#e1d5b6"/>
      <stop offset=".95" stop-color="#ebeed5"/>
      <stop offset="1" stop-color="#f1ffea"/>
    </linearGradient>
    <linearGradient id="linear-gradient-59" x1="443.93" y1="78.54" x2="464.68" y2="78.54" xlink:href="#linear-gradient-58"/>
    <linearGradient id="linear-gradient-60" x1="445.23" y1="115.02" x2="466.11" y2="115.02" gradientUnits="userSpaceOnUse">
      <stop offset="0" stop-color="#bf4b50"/>
      <stop offset=".74" stop-color="#291a68"/>
      <stop offset="1" stop-color="#7f365a"/>
    </linearGradient>
    <linearGradient id="linear-gradient-61" x1="445.47" y1="141.74" x2="463.13" y2="141.74" gradientUnits="userSpaceOnUse">
      <stop offset="0" stop-color="#fdbc5a"/>
      <stop offset=".85" stop-color="#fd4349"/>
      <stop offset="1" stop-color="#fd8456"/>
    </linearGradient>
    <linearGradient id="linear-gradient-62" x1="415.16" y1="363.83" x2="423.7" y2="363.83" xlink:href="#linear-gradient-60"/>
    <linearGradient id="linear-gradient-63" x1="484.91" y1="363.83" x2="493.45" y2="363.83" xlink:href="#linear-gradient-60"/>
    <linearGradient id="linear-gradient-64" x1="1259.14" y1="443.6" x2="1259.14" y2="440.89" gradientTransform="matrix(-1 0 0 1 1697.79 -66.15)" gradientUnits="userSpaceOnUse">
      <stop offset="0" stop-color="#4f1457"/>
      <stop offset=".35" stop-color="#450e40"/>
      <stop offset=".74" stop-color="#3c092b"/>
      <stop offset="1" stop-color="#390724"/>
    </linearGradient>
    <linearGradient id="linear-gradient-65" x1="1259.14" y1="440.88" x2="1259.14" y2="434.55" xlink:href="#linear-gradient-64"/>
    <linearGradient id="linear-gradient-66" x1="1267.06" y1="390.27" x2="1267.06" y2="430.41" gradientTransform="matrix(-1 0 0 1 1697.79 -66.15)" gradientUnits="userSpaceOnUse">
      <stop offset="0" stop-color="#bf4b50"/>
      <stop offset="1" stop-color="#291a68"/>
    </linearGradient>
    <linearGradient id="linear-gradient-67" x1="1267.06" y1="390.27" x2="1267.06" y2="430.41" xlink:href="#linear-gradient-66"/>
    <linearGradient id="linear-gradient-68" x1="-256.1" y1="443.6" x2="-256.1" y2="440.89" gradientTransform="translate(726.05 -66.15)" xlink:href="#linear-gradient-64"/>
    <linearGradient id="linear-gradient-69" x1="-256.1" y1="440.88" x2="-256.1" y2="434.55" gradientTransform="translate(726.05 -66.15)" xlink:href="#linear-gradient-64"/>
    <linearGradient id="linear-gradient-70" x1="-248.18" y1="390.27" x2="-248.18" y2="430.41" gradientTransform="translate(726.05 -66.15)" xlink:href="#linear-gradient-66"/>
    <linearGradient id="linear-gradient-71" x1="-248.18" y1="390.27" x2="-248.18" y2="430.41" gradientTransform="translate(726.05 -66.15)" xlink:href="#linear-gradient-66"/>
    <linearGradient id="linear-gradient-72" x1="-289.38" y1="330.68" x2="-263.9" y2="330.68" xlink:href="#linear-gradient-58"/>
    <linearGradient id="linear-gradient-73" x1="-294.64" y1="427.14" x2="-276.54" y2="427.14" xlink:href="#linear-gradient-61"/>
    <linearGradient id="linear-gradient-74" x1="-293.07" y1="397.65" x2="-263.39" y2="397.65" xlink:href="#linear-gradient-60"/>
    <linearGradient id="linear-gradient-75" x1="-261.02" y1="330.68" x2="-235.55" y2="330.68" xlink:href="#linear-gradient-58"/>
    <linearGradient id="linear-gradient-76" x1="-246.66" y1="427.14" x2="-230.45" y2="427.14" xlink:href="#linear-gradient-61"/>
    <linearGradient id="linear-gradient-77" x1="-261.53" y1="397.65" x2="-231.86" y2="397.65" xlink:href="#linear-gradient-60"/>
    <linearGradient id="linear-gradient-78" x1="-273.46" y1="277.06" x2="-251.47" y2="277.06" xlink:href="#linear-gradient-58"/>
    <linearGradient id="linear-gradient-79" x1="452.45" y1="28.28" x2="456.16" y2="28.28" xlink:href="#linear-gradient-58"/>
    <linearGradient id="linear-gradient-80" x1="-263.39" y1="74.67" x2="-261.53" y2="74.67" xlink:href="#linear-gradient-58"/>
    <linearGradient id="linear-gradient-81" x1="453.83" y1="363.83" x2="454.77" y2="363.83" xlink:href="#linear-gradient-60"/>
    <linearGradient id="linear-gradient-82" x1="-271.75" y1="445.52" x2="-271.75" y2="442.81" gradientTransform="translate(726.05 -66.15)" xlink:href="#linear-gradient-64"/>
    <linearGradient id="linear-gradient-83" x1="-271.75" y1="442.8" x2="-271.75" y2="436.48" gradientTransform="translate(726.05 -66.15)" xlink:href="#linear-gradient-64"/>
    <linearGradient id="linear-gradient-84" x1="-263.83" y1="392.2" x2="-263.83" y2="432.33" gradientTransform="translate(726.05 -66.15)" xlink:href="#linear-gradient-66"/>
    <linearGradient id="linear-gradient-85" x1="-263.83" y1="392.19" x2="-263.83" y2="432.33" gradientTransform="translate(726.05 -66.15)" xlink:href="#linear-gradient-66"/>
    <linearGradient id="linear-gradient-86" x1="-279.67" y1="392.2" x2="-279.67" y2="432.33" gradientTransform="translate(726.05 -66.15)" xlink:href="#linear-gradient-66"/>
    <linearGradient id="linear-gradient-87" x1="-279.67" y1="392.19" x2="-279.67" y2="432.33" gradientTransform="translate(726.05 -66.15)" xlink:href="#linear-gradient-66"/>
    <linearGradient id="linear-gradient-88" x1="-272.37" y1="330.68" x2="-248.31" y2="330.68" xlink:href="#linear-gradient-58"/>
    <linearGradient id="linear-gradient-89" x1="-272.37" y1="427.14" x2="-248.31" y2="427.14" xlink:href="#linear-gradient-61"/>
    <linearGradient id="linear-gradient-90" x1="-272.37" y1="397.65" x2="-248.31" y2="397.65" xlink:href="#linear-gradient-60"/>
    <linearGradient id="linear-gradient-91" x1="-262.46" y1="296.27" x2="-262.46" y2="439.83" gradientUnits="userSpaceOnUse">
      <stop offset=".6" stop-color="#fdbc95" stop-opacity="0"/>
      <stop offset="1" stop-color="#fdec95"/>
    </linearGradient>
    <radialGradient id="radial-gradient" cx="-484.49" cy="491.2" r="177.83" gradientTransform="rotate(.03 3113.61 2061.83)" gradientUnits="userSpaceOnUse">
      <stop offset=".23" stop-color="#fffffe"/>
      <stop offset=".37" stop-color="#fffcf6"/>
      <stop offset=".58" stop-color="#fff5e0"/>
      <stop offset=".85" stop-color="#ffeabd"/>
      <stop offset="1" stop-color="#ffe2a5"/>
    </radialGradient>
    <radialGradient id="radial-gradient-2" cx="4774.98" cy="490.34" r="177.83" gradientTransform="matrix(-1 0 0 1 4731.48 1.63)" xlink:href="#radial-gradient"/>
    <radialGradient id="radial-gradient-3" cx="-265.17" cy="437.39" r="394.12" gradientUnits="userSpaceOnUse">
      <stop offset="0" stop-color="#fff2af"/>
      <stop offset=".04" stop-color="#fff3b6"/>
      <stop offset=".11" stop-color="#fff7cb"/>
      <stop offset=".19" stop-color="#fffcec"/>
      <stop offset=".23" stop-color="#fffffe"/>
      <stop offset=".37" stop-color="#fffcf6"/>
      <stop offset=".58" stop-color="#fff5e0"/>
      <stop offset=".85" stop-color="#ffeabd"/>
      <stop offset="1" stop-color="#ffe2a5"/>
    </radialGradient>
    <style>
      .cls-17{fill:url(#linear-gradient-16)}.cls-18{fill:url(#linear-gradient-18)}.cls-19{fill:url(#linear-gradient-20)}.cls-20{fill:url(#linear-gradient-22)}.cls-21{fill:url(#linear-gradient-26)}.cls-22{fill:url(#linear-gradient-30)}.cls-60{opacity:.2;mix-blend-mode:multiply}.cls-61{fill:#6d25a2}.cls-77{fill:#e3d2b4}
    </style>
  </defs>
  <g style="isolation:isolate">
    <g id="圖層_2" data-name="圖層 2">
      <g id="BACKGROUND_1" data-name="BACKGROUND 1">
        <path d="M-36.12 501v-1.79h3.35v-3h-3.35v-4.31h-2.3v-9.79h.14v-.41h-.14v-2.57h.14v-.41h-1.5v.41h.14v2.57h-.14v.41h.14v9.79H-41v-9.79h.13v-.41H-41v-2.57h.13v-.41h-1.49v.41h.13v2.57h-.13v.41h.13v9.79h-1.39v-9.79h.14v-.41h-.14v-2.57h.14v-.41H-45v.41h.14v2.57H-45v.41h.14V494h-1.39v-11.89h.13v-.41h-.13v-2.57h.13v-.41h-1.49v.41h.13v2.57h-.13v.41h.13V494h-2v-12.3h-7.13V364.31h-.3v-1.71h.3v-.25h-6.46v-1.22h-1.11V359h-3.33v3.36h-3.34v-1.63H-72v1.63h-1.14v-6.67h-1.69v2.79h-9.45l-.4-2.08h.3v-.33h-.36l-2.26-11.6h3.11V342h-.4v-2.29h.4v-.33h-37.73v.33h.36V342h-.36v64.07h-36.85v.33h.36v2.09h-1.09v10.74h5.34v9.84l-4.7-2.49-1.88 2.62 1.88 5.92v16.18h-9.35l-7.87-3.05v3.05h-5.51v-2.61h-1.79v14.47h29.22v5.32h-2.41v1.17h2.41v1.9h.37v2.35h.64v-1.35h.6v-1h.41v-.27h5.08v1.36h.95v2.78h5.14v1h-3.22v.16h-20.34v3.77h19.37v.33h.76a2.3 2.3 0 0 0 1.16-.33h2.27v9.94h1.25v-9.94h6.77V489h.5v-5.73h3.21v9.35h7.32v11.54h1.49v-1.38h6.94v1.38h1.49v-1.38h1.22v1.38h10.59V511h26.81v-4.76H-26V501Zm-120-59.83.6.62h-.61Zm-.31 10.88-3.46 3.46-3.46-3.46Zm-4.28 5.39h1.71l2.75 2.76h-7.14Zm-3.55 2.45-2.45-2.45h4.89Zm-2.66-7.84h1.74l-1.74 1.74Zm0 2.85 2.66-2.65 3.82 3.82h-6.48Zm-.9 2.54 2.75 2.76h-7.14l2.75-2.76Zm-2.75 0-2.44 2.45-2.45-2.45Zm-6 0 2.75 2.76h-7.14l2.75-2.76Zm-4.74 0h2l-2 2Zm27.43 4.9h-27.43V461h27.43Zm0-2.14h-.83l.83-.84Zm0-2-1.63 1.64-2.45-2.45h4.08Zm0-2.18h-5.45l3.82-3.82 1.63 1.63Zm0-3.3-.72-.72h.72Zm0-1.5h-2.24V443h1.77l.47.49Zm-2.73-42.77h-1.2v-1.15h1.2Zm0-1.48h-1.2v-.61h1.2Zm1.53 1.48h-1.2v-1.15h1.2Zm0-1.48h-1.2v-.61h1.2Zm1.53 1.48h-1.2v-1.15h1.2Zm0-1.48h-1.2v-.61h1.2Zm1.53 1.48h-1.21v-1.15h1.23Zm0-1.48h-1.21v-.61h1.23Zm27.8-.61h1.2v.61h-1.2Zm0 .94h1.2v1.15h-1.2Zm-1.53-.94h1.21v.61h-1.21Zm0 .94h1.21v1.15h-1.21Zm.94 43 .2-.2h.38l-.58.59Zm0 7.08h.74l1.16 1.16h-1.9Zm-2.48-13.94h.31l-.31.67Zm-3-37.09h1.21v.61h-1.21Zm1.54 37.09h.09l-.31.7-5.33 5.32-.2-.27Zm-1.54-36.15h1.21v1.15h-1.21Zm-1.52-.94h1.2v.61h-1.2Zm0 .94h1.2v1.15h-1.2Zm-1.53-.94h1.2v.61h-1.2Zm0 .94h1.2v1.15h-1.2Zm-1.53-.94h1.21v.61h-1.21Zm0 .94h1.21v1.15h-1.21Zm-.23 36.15h5.8l-5.43 5.42-.37-.51Zm0 6.57.11.15-.11.1Zm0 .81.34-.34.52.73h-.86Zm-1.29-44.47h1.2v.61h-1.2Zm0 .94h1.2v1.15h-1.2Zm-2.85 25v2.81h-.16v-15.83h.66l3.11 6.84v6.24Zm.35 19.73-.51.51v-.51Zm1.21-32.81h2.05v4.49Zm-.24-12.83h1.2v.61h-1.2Zm0 .94h1.2v1.15h-1.2Zm-1.53-.94h1.21v.61h-1.21Zm-3 0h1.2v.61h-1.2Zm0 .94h1.2v1.15h-1.2Zm-1.53-.94h1.21v.61H-144Zm0 .94h1.21v1.15H-144Zm-1.52-.94h1.2v.61h-1.2Zm0 .94h1.2v1.15h-1.2Zm-1.53-.94h1.2v.61h-1.2Zm0 .94h1.2v1.15h-1.2Zm-1.53-.94h1.21v.61h-1.21Zm0 .94h1.21v1.15h-1.21Zm-1.52-.94h1.2v.61h-1.2Zm0 .94h1.2v1.15h-1.2Zm5.45 11.89v6.38h-2.69l-3-6.38Zm-7-12.83h1.2v.61h-1.2Zm0 .94h1.2v1.15h-1.2Zm-.16 11.89h.37l6.94 14.76-7.31-3.86Zm3.85 38.2-.37.83-.83-.83Zm-2.57-1.37 3.82-3.82.77.77-1.39 3.05Zm2.58 3.69.43.44h-.62Zm.35-.76.71-1.56h2.62l-2.44 2.45Zm1.34-2.93 1.05-2.32 2.32 2.32Zm.46-4h.3l-.09.2Zm-2.63-8.55v7.77H-151v-7.77Zm-3.38 8.55h4.18l-3.46 3.46-.72-.72Zm0 3.85.17.17h-.17Zm0 1.54h1.54l1.59 1.59-.53 1.17h-2.6Zm0 3.54h2.24l-.62 1.36h-1.62Zm0 2.15h1.26l-1.26 2.78Zm11.17 4.37h-1.2v1h-10v-.19l2.33-5.13h8.84Zm0-5.16h-8.48l.62-1.36h7.86Zm0-2.14h-5.27l2.75-2.76h1.64l.88.88Zm0-4.13h-1.14l1.14-1.15Zm0-2.26-1.7 1.7-2.52-2.52.43-.94h3.79Zm0-18.68h-1.73l-.7-.37-3.84-8.16h6.27Zm0-9.51h-3.05v-6.38h1v2.65h2Zm.88-17.12H-141v-1.15h1.2Zm0-1.48H-141v-.61h1.2Zm.32 1.48v-1.15h1.21v1.15Zm.05 51.07.63.63h-.63Zm.77 5.83-.77 1.69v-4h.77Zm0-3.06h-.77V461h.77Zm0-3.11-.77-.77v-1h.77Zm4.25-3.16h-5v-2.4l1.43-1.42 3.66 3.66Zm-2.68-4h3.39l.68 1-1 2.14Zm4.39 4h-.36l.69-.69Zm.06-1.55.28-.6.14.19Zm-.85-3.83-.6-.84 4.62-4.63-1.22 2.67Zm2 2.65-.07.07-.37-.51.39-.85h.64Zm.65 2.73h-.82l.32-.69Zm-.34-4.8.11-.24 1.18-1.18-.65 1.42Zm2.2 31.31h-3.21v-2.22h3.21Zm.52-26.51h-1.19l-1.23-1.71.43-.94 1.17-1.17.82.82Zm0-6.79-.2.19.2-.42Zm0-3.64-.29.29.29-.64Zm.84-37.14h-1.2v-1.15h1.2Zm0-1.48h-1.2v-.61h1.2Zm1 49.05h-.7v-1.85l.7.7Zm0-2.26-.7-.7v-1.06h.7Zm0-2.54h-.7v-.37l.7-.7Zm0-3.84-.7.7v-.87l.7-.7Zm.52-38.93h-1.2v-1.15h1.2Zm0-1.48h-1.2v-.61h1.2Zm.06 49.05v-.57l.57.57Zm.62-1.06-.62-.62v-2.34h.62Zm0-3.74h-.33l.33-.33Zm0-.89-.62.63v-1.38l.62-.63Zm0-4.15-.62.62V446l.62-.62Zm.58 22.22v-4l2.89 4Zm3.17-1.29-2.9-4h2.9Zm0-4.82h-3.17V461h3.17Zm0-2.14h-3.17V460h3.17Zm0-1.6h-.16l-1.16-1.16h1.32Zm0-2.53h-2.69l2.69-2.69Zm0-3.8-3.17 3.17v-3.39h3.17Zm0-1h-3.13l1.1-1.11h2Zm0-4.83h-1.18l.39-.39h.79Zm0-2.36h-1.2a1 1 0 0 0-.69.29l-1.28 1.28v-.87l1.27-1.27h1.9Zm0-35.58h-1v-1.15h1Zm0-1.48h-1v-.61h1Zm36.21-49.27-.48-.48h.39Zm-.16-.8h-.65l-.05-.05v-.54h.59Zm-.53 1.49h-.17v-.17Zm.28-18.72h1.2v.61h-1.2Zm0 .94h1.2V342h-1.2Zm-1.53-.94h1.2v.61h-1.2Zm0 .94h1.2V342h-1.2Zm1.61 15.37h-1.39l-1.88-1.88 1.48-7.58Zm-.48 17.35-.05-.05v-.54h.59l.11.59Zm.72.32.09.48-.48-.48Zm-.6 1.17h-.17v-.17Zm-1-2.41-1.91-1.88 1.48-7.59 1.84 9.51Zm.91 17.35h-.05v-.54h.59l.11.59Zm.72.32.09.48-.48-.48Zm-.6 1.17h-.17v-.17Zm-1-2.41L-89 387l1.48-7.59 1.84 9.51Zm.91 17.34-.05-.05v-.54h.59l.11.59Zm.72.33.09.48-.48-.48Zm-.6 1.17h-.17v-.17Zm-1-2.41-1.97-1.89 1.48-7.58 1.84 9.51Zm0 16.43-1.97-1.89 1.48-7.58 1.84 9.51Zm1.45.32.11.59h-.65l-.05-.05v-.54Zm-1.91.59h-.16v-.16ZM-89.23 357v-.59h1.06l.1.1v.49Zm1.16.32v1.17h-1.16v-1.19Zm-1.35-1.24.15-.77.77.77Zm-.46-2.75-5.55-5.56v-3.28h7.27Zm.28 3.67v-.22.22Zm0 .32v1.17h-.34l.23-1.17Zm-.55-2.84-.31 1.6h-5v-6.93Zm-.62 2.52v-.59h.25l-.12.59Zm.07.32-.07.34v-.34Zm-1.5-.32v-.59h1.2v.59Zm1.16.32v1.17h-1.16v-1.19Zm-2.65-.32v-.59h1.16v.59Zm1.16.32v1.17h-1.16v-1.19Zm-2.64-.32v-.59H-94v.59Zm1.16.32v1.17h-1.16v-1.19Zm5.85 3.6-1.72 8.84-5.55-5.56v-3.3Zm-1.07 12.51v-.59h1.06l.1.1v.49Zm1.16.32v1.17h-1.16v-1.17Zm-1.35-1.24.15-.77.77.77Zm-.18.92v-.22.22Zm0 .32v1.17h-.34l.23-1.17Zm-.55-2.84-.31 1.6h-5v-6.93Zm-.62 2.52v-.59h.25l-.12.59Zm.07.32-.07.34v-.34Zm-1.55-.32v-.59H-91v.59Zm1.16.32v1.17h-1.11v-1.17Zm-2.65-.32v-.59h1.16v.59Zm1.16.32v1.17h-1.16v-1.17Zm-2.64-.32v-.59H-94v.59Zm1.16.32v1.17h-1.16v-1.17Zm5.85 3.59-1.72 8.85-5.55-5.56v-3.29Zm-1.07 12.52v-.59h1.06l.1.1v.49Zm1.16.32v1.17h-1.16v-1.17Zm-1.35-1.24.15-.77.77.77Zm-.18.92v-.23.23Zm0 .32v1.17h-.34l.23-1.17Zm-.55-2.84-.31 1.6h-5V382Zm-.62 2.52v-.59h.25l-.12.59Zm.07.32-.07.34v-.34Zm-1.55-.32v-.59h1.3v.59Zm1.16.32v1.17h-1.06v-1.17Zm-2.65-.32v-.59h1.16v.59Zm1.16.32v1.17h-1.16v-1.17Zm-2.64-.32v-.59H-94v.59Zm1.16.32v1.17h-1.16v-1.17Zm5.85 3.59-1.72 8.85-5.45-5.62v-3.29Zm-1.07 12.51v-.59h1.06l.1.11v.48Zm1.16.33v1.17h-1.16v-1.17Zm-1.35-1.24.15-.77.77.77Zm-.18.91v-.22.22Zm0 .33v1.17h-.34l.23-1.17Zm-.55-2.84-.31 1.6h-5v-6.94Zm-.62 2.51v-.59h.25l-.12.59Zm.07.33-.07.33v-.33Zm-1.55-.33v-.59H-91v.59Zm1.16.33v1.17h-1.01v-1.17Zm-2.65-.33v-.59h1.16v.59Zm1.16.33v1.17h-1.16v-1.17Zm-2.64-.33v-.59H-94v.59Zm1.16.33v1.17h-1.16v-1.17Zm5.85 3.59-1.57 8.8-5.55-5.55v-3.29Zm.42-2.42v-1.17h.48l.68.67v.5Zm0-1.5v-.16l.16.16Zm.94-.59h.22v.22Zm-.94-14.34v-1.17h.48l.68.68v.49Zm0-1.49v-.17l.16.17Zm.94-.59h.22v.21Zm-.94-14.35v-1.17h.48l.68.68v.49Zm0-1.49v-.16l.16.16Zm.94-.59h.22v.16Zm-.94-14.35v-1.19h.48l.68.68v.49Zm0-1.49v-.16l.16.16Zm.94-.59h.22v.21Zm-2.06-16.64h1.2v.61h-1.2Zm0 .94h1.2V342h-1.2Zm-1.53-.94h1.2v.61h-1.2Zm0 .94h1.2V342h-1.2Zm-1.53-.94h1.2v.61h-1.2Zm0 .94h1.2V342h-1.2Zm-1.53-.94h1.21v.61h-1.21Zm0 .94h1.21V342h-1.21Zm-1.52-.94h1.2v.61H-95Zm0 .94h1.2V342H-95Zm-1.53-.94h1.2v.61h-1.2Zm-15.27 0h1.21v.61h-1.21Zm-3 0h1.2v.61h-1.2Zm0 .94h1.2V342h-1.2Zm-1.53-.94h1.21v.61h-1.21Zm0 .94h1.21V342h-1.21Zm1.95 15.37h-4.49l2.24-9.87Zm-.09.92v-.59h.16l.13.59Zm.37.32.26 1.17h-.63v-1.19ZM-116 357v-.59h1.16v.59Zm1.16.32v1.17H-116v-1.19Zm.33 16.11v-.59h.16l.13.59Zm.37.32.26 1.17h-.63v-1.17Zm-4.77-1.24 2.24-9.87 2.25 9.87Zm2.91.92v-.59h1.16v.59Zm1.16.32v1.17H-116v-1.17Zm-4.07 15.19 2.24-9.87 2.25 9.87Zm4.56.33.13.59h-.29v-.59Zm-3.14.59v-.59h1.16v.59Zm1.16.32v1.17h-1.16v-1.17Zm-3.58-1.24h-.23v-11.6h2.87Zm.61 1.68v.73h-.16Zm-.69-1.35-.13.59v-.59Zm1-32.27v-.59h1.16v.59Zm1.16.32v1.17h-1.16v-1.19Zm-2.1-1.24h-.23v-11.61h2.87Zm.61 1.69v.72h-.16Zm-.69-1.36-.13.59v-.59Zm2.72 4.51-2.64 11.59h-.23V360.9Zm-.22-2.43v-1.19h1.16v1.17Zm-1.48 14.94v-.59h1.16v.59Zm1.16.32v1.17h-1.16v-1.17Zm-1.49.45v.72h-.16Zm-.69-1.36-.13.59v-.59Zm2.5 2.08v-1.17h1.16v1.17Zm-1.48 15.26h1.16v1.17h-1.16Zm0-.32v-.59h1.16v.59Zm2.64-16.43h-1.16v-.59h1.16Zm0-16.43h-1.16v-.59h1.16Zm-1.56-17.23h1.2v.61h-1.2Zm0 .94h1.2V342h-1.2Zm-1.53-.94h1.2v.61h-1.2Zm0 .94h1.2V342h-1.2Zm-1.53-.94h1.21v.61h-1.21Zm.06 2.29h-.06v-1.35h1.21V342h-1.15Zm.75 58.87v-7.16h2.87l-1.63 7.16Zm2.24 0 1.23-5.43 1.24 5.43Zm2.79-3-1-4.17h1Zm.27-6.59H-116v-1.17h1.16Zm0-1.49H-116v-.59h1.16Zm.33 1.49v-1.17h.37l.26 1.17Zm1.31 9.58h-.67v-7.16h.67Zm-.15-11.66Zm.15-.33h-.23l-2.63-11.6h2.86Zm-.15-16.1Zm.15-.33h-.23l-2.55-11.6h2.86Zm-.15-16.1Zm.15-.33h-.23l-2.55-11.6h2.86Zm1.09-14h-1.2v-1.35h1.2Zm0-1.68h-1.2v-.61h1.2Zm.32 1.68v-1.35h1.21V342h-1.21Zm1.3 58.87h-1.22v-7.16h1.22Zm0-9.58h-1v-1.17h1Zm0-1.49h-1v-.59h1Zm0-.92h-1.22v-11.6h1.22Zm0-14h-1v-1.17h1Zm0-1.49h-1v-.59h1Zm0-.92h-1.22V360.9h1.22Zm0-14h-1v-1.24h1Zm0-1.49h-1v-.59h1Zm0-.92h-1.22v-11.66h1.22Zm1.43-14h-1.2v-1.35h1.2Zm0-1.68h-1.2v-.61h1.2Zm1.53 1.68h-1.2v-1.35h1.2Zm0-1.68h-1.2v-.61h1.2ZM-106 342h-1.21v-1.35h1.21Zm0-1.68h-1.21v-.61h1.21Zm1.52 1.68h-1.2v-1.35h1.2Zm0-1.68h-1.2v-.61h1.2Zm1.53 1.68h-1.2v-1.35h1.2Zm0-1.68h-1.2v-.61h1.2Zm1.53 1.68h-1.21v-1.35h1.21Zm0-1.68h-1.21v-.61h1.21Zm1.52 1.68h-1.2v-1.35h1.2Zm0-1.68h-1.2v-.61h1.2Zm1.53 1.68h-1.2v-1.35h1.2Zm0-1.68h-1.2v-.61h1.2Zm1.53 1.68H-98v-1.35h1.21Zm0-1.68H-98v-.61h1.21Zm.32.33h1.2V342h-1.2Zm2.52 83.53h-1.16V423H-94Zm0-1.49h-1.16v-.59H-94Zm1.48 1.49h-1.16V423h1.16Zm0-1.49h-1.16v-.59h1.16Zm1.49 1.49h-1.17V423h1.2Zm0-1.49h-1.17v-.59h1.2Zm.32.66V423h.07Zm.13-.66h-.13v-.59h.25Zm.18-.91h-5v-6.94l5.33 5.34Zm.86 2.4h-.34l.23-1.16h.11Zm0-1.49v-.22Zm.28-1.69.77.78h-.92Zm1.2 3.18h-1.16V423h1.16Zm0-1.49h-1.16v-.59h1.06l.1.11Zm1.49 1.49h-1.16V423h.48l.68.67Zm0-1.86-.22-.22h.22Zm.32 1.86V424l.17.16Zm.38-1.16h.39l.09.48Zm11-11.39v12.55h-9.45l-.4-2.08h.3v-.32h-.36l-2.22-11.6h12.16Zm0-12.28v8.41h-9.45l-.4-2.09h.3v-.32h-.36l-2.22-11.6h12.16Zm0-21v12.93h-9.45l-.4-2.08h.3v-.33h-.36L-87 377.32h12.16Zm0-12.28v8.78h-9.45l-.4-2.08h.3v-.33h-.36L-87 360.9h12.16v5.22Zm2.83-1.81h-.9v-1h.9Zm0-1.25h-.9v-.46h.9Zm2.28 1.25h-.9v-1h.9Zm0-1.25h-.9v-.46h.9Zm1.14 1.25h-.89v-1h.89Zm0-1.25h-.89v-.46h.89Zm1.06 1.25h-.81v-1h.81Zm0-1.25h-.81v-.46h.81Zm8.32-.46h.89v.46h-.89Zm0 .7h.89v1h-.89Zm1.24 11.54h-1l-1.44-1.44 1.1-5.66Zm-.35.69V375h.35l.09.45Zm.53.24.07.36-.36-.36Zm-.44.87h-.13v-.12Zm-.09 11.16v-.41h.35l.09.44Zm.53.25.07.35-.36-.35Zm-.44.87h-.13v-.13Zm-.77-1.8-1.44-1.44 1.1-5.67 1.37 7.11Zm.68 13v-.4h.35l.09.44Zm.53.24.07.36-.36-.36Zm-.44.88h-.13V401Zm-.77-1.8-1.44-1.44 1.1-5.67 1.37 7.11Zm.68 13v-.4h.35l.09.44Zm.53.24.07.36-.36-.36Zm-.44.87h-.13v-.12Zm-.77-1.79-1.44-1.44 1.1-5.67 1.37 7.11Zm.68 13v-.4h.35l.09.44Zm.53.24.07.36-.36-.36Zm-.44.87h-.13v-.12Zm-.77-1.8-1.44-1.44 1.1-5.66 1.37 7.1Zm.68 13v-.41h.35l.09.44Zm.53.25.07.36-.36-.36Zm-.44.87h-.13v-.13Zm-.77-1.8-1.44-1.44 1.1-5.67 1.37 7.11Zm.68 13v-.4h.35l.09.44Zm.53.24.07.36-.36-.36Zm-.44.88h-.13v-.13Zm-.77-1.8-1.45-1.66 1.1-5.67 1.37 7.11Zm.68 13V461h.35l.09.44Zm.53.24.07.36-.36-.36Zm-.44.88h-.13v-.13Zm-.77-1.8-1.44-1.44 1.1-5.67 1.37 7.11Zm.68 13v-.4h.35l.09.44Zm.53.24.07.36-.36-.36Zm-.44.87h-.13v-.12ZM-59 473l-1.44-1.43 1.1-5.67L-58 473Zm-.1.93.5.51v.36h-.87v-.87Zm-.37-.24v-.12l.12.12Zm.71-.44h.16v.16Zm-2.09.44v-.17.17Zm0 .24v.87H-61v-.38l.09-.49Zm-.17-3.33v-6.26h1.21Zm.41-95.13V375h.79l.08.08v.37Zm.87.24v.87h-.87v-.87Zm-1-.93.11-.58.58.58Zm-.27-2.4v-6.27h1.21Zm.17 2.92v.17Zm-.08.41h.08v.87H-61v-.38Zm1.12 2.68-1.2 6.28v-6.27Zm-.8 9.35v-.44h.79l.08.08v.36Zm.87.25v.87h-.87V388Zm-1-.93.11-.58.58.58Zm-.1.52v.16Zm-.08.41h.08v.87H-61v-.39Zm1.12 2.68L-61 397v-6.27Zm-.8 9.35v-.44h.79l.08.08v.34Zm.87.24v.88h-.87v-.88Zm-1-.92.11-.58.58.58Zm-.1.52v.14Zm-.08.4h.08v.88H-61v-.39Zm1.12 2.69-1.22 6.27V403Zm-.8 9.35v-.44h.79l.08.08v.36Zm.87.24v.87h-.87v-.87Zm-1-.92.11-.58.58.58Zm-.1.51v.17Zm-.08.41h.08v.87H-61V413Zm1.12 2.69L-61 421.5v-6.26Zm-.8 9.35v-.44h.79l.08.07v.37Zm.87.24v.87h-.87v-.87Zm-1-.93.11-.57.58.57Zm-.1.52v.17Zm-.08.41h.08v.87h-.2v-.38Zm1.12 2.68-1.24 6.28v-6.27Zm-.8 9.35v-.44h.79l.08.08v.36Zm.87.25v.9h-.87v-.87Zm-1-.93.11-.58.58.58Zm-.1.52v.16Zm-.08.41h.08v.9H-61v-.39Zm1.12 2.68-1.25 6.28v-6.27Zm-.8 9.35v-.44h.79l.08.08v.36Zm.87.24v.88h-.87v-.88Zm-1-.92.11-.58.58.58Zm-.1.52v.16Zm-.08.4h.08v.88H-61v-.39Zm1.12 2.69-1.26 6.27v-6.26Zm-.8 9.35V461h.79l.08.08v.36Zm.87.24v.88h-.87v-.88Zm-1-.92.11-.58.58.58Zm-.1.51v.17Zm-.08.41h.08v.88H-61v-.39Zm.29 10.78.58.57h-.69Zm0 1.5h.87v.87h-.87Zm0-.24v-.44h.79l.08.07v.37Zm1.11-11.16v-.88h.37l.5.51v.37Zm0-1.12v-.12l.12.12Zm.71-.44h.16v.16Zm-.71-10.72v-.88h.37l.5.51v.37Zm0-1.12V449l.12.12Zm.71-.44h.16v.16Zm-.77-10.69v-.87h.37l.5.5v.37Zm0-1.12v-.12l.12.12Zm.71-.44h.16v.16Zm-.71-10.72v-.87h.37l.5.5v.37Zm0-1.11v-.12l.12.12Zm.71-.44h.16v.16Zm-.71-10.73v-.87h.37l.5.51v.36Zm0-1.11v-.12l.12.12Zm.71-.44h.16v.11Zm-.71-10.72v-.88h.37l.5.51v.37Zm0-1.12v-.12l.12.12Zm.71-.44h.16v.16Zm-.71-10.72V388h.37l.5.5v.37Zm0-1.12v-.12l.12.12Zm.71-.44h.16v.16Zm-.71-10.72v-.87h.37l.5.5v.37Zm0-1.11v-.12l.12.12Zm.71-.45h.16v.17Zm-1.55-12.43h.9v.46h-.9Zm0 .7h.9v1h-.9Zm-1.14-.7h.9v.46h-.9Zm-1.59 0h.21v.46h-.21Zm0 .7h.21v1h-.21Zm-2.17 10.85.64.64h-.64Zm.19 1.33v-.5h.69l.18.18v.27Zm.87.24v.87h-.87v-.87Zm-1.06 106v-1.59l1.59 1.59Zm3.1 0h-.48l-2.62-2.62v-2.46h3.1Zm-2-7.76v.87h-.87v-.87Zm-.87-.24v-.44h.87v.44Zm2 .24v.87h-.87v-.87Zm-.87-.24v-.44h.87v.44Zm1.8 1.11h-.69v-.87h.69Zm0-1.11h-.69v-.44h.69Zm0-.69h-3.1v-5.18l3.1 3.1Zm0-3.1-3.1-3.11v-2.45h3.1Zm-2-8.25v.88h-.87v-.88Zm-.87-.24V461h.87v.44Zm2 .24v.88h-.87v-.88Zm-.87-.24V461h.87v.44Zm1.8 1.12h-.69v-.88h.69Zm0-1.12h-.69V461h.69Zm0-.68h-3.1v-5.19l3.1 3.11Zm0-3.11-3.1-3.1v-2.46h3.1Zm-2-8.25v.88h-.87v-.88Zm-.87-.24v-.44h.87v.44Zm2 .24v.88h-.87v-.88Zm-.87-.24v-.44h.87v.44Zm1.8 1.12h-.69v-.88h.69Zm0-1.12h-.69v-.44h.69Zm0-.68h-3.1v-5.18l3.1 3.1Zm0-3.11-3.1-3.1v-2.46h3.1Zm-2-8.24v.85h-.87v-.87Zm-.87-.25v-.44h.87v.44Zm2 .25v.85h-.87v-.87Zm-.87-.25v-.44h.87v.44Zm1.8 1.12h-.69v-.87h.69Zm0-1.12h-.69v-.44h.69Zm0-.68h-3.1V431l3.1 3.1Zm0-3.11-3.1-3.1v-2.46h3.1Zm-2-8.24v.87h-.87v-.87Zm-.87-.24v-.44h.87v.44Zm2 .24v.87h-.87v-.87Zm-.87-.24v-.44h.87v.44Zm1.8 1.11h-.69v-.87h.69Zm0-1.11h-.69v-.44h.69Zm0-.69h-3.1v-5.18l3.1 3.1Zm0-3.1-3.1-3.11v-2.45h3.1Zm-2-8.25v.87h-.87v-.87Zm-.87-.24v-.44h.87v.44Zm2 .24v.87h-.87v-.87Zm-.87-.24v-.44h.87v.44Zm1.8 1.11h-.69v-.87h.69Zm0-1.11h-.69v-.44h.69Zm0-.68h-3.1v-5.19l3.1 3.11Zm0-3.11-3.1-3.11V403h3.1Zm-2-8.25v.88h-.87v-.88Zm-.87-.24v-.44h.87v.37Zm2 .24v.88h-.87v-.88Zm-.87-.24v-.44h.87v.37Zm1.8 1.12h-.69v-.88h.69Zm0-1.12h-.69v-.44h.69Zm0-.68h-3.1v-5.19l3.1 3.11Zm0-3.11-3.1-3.1v-2.46h3.1Zm-2-8.24v.87h-.87V388Zm-.87-.25v-.44h.87v.44Zm2 .25v.87h-.87V388Zm-.87-.25v-.44h.87v.44Zm1.8 1.12h-.69V388h.69Zm0-1.12h-.69v-.44h.69Zm0-.68h-3.1v-5.18l3.1 3.1Zm0-3.11-3.1-3.1v-2.5h3.1Zm-1.53-8.24.6.6v.27h-.87v-.87Zm-.27-.24Zm.61-.45h.26v.26Zm.5 1.56Zm.69-.37-.51-.5h.51Zm0-.74h-.69V375h.69Zm0-.69h-1.43l-1.67-1.67v-3.51l3.1 3.1Zm0-3.11-3.1-3.1v-2.46h3.1Zm.42-7.37h-.9v-1h.9Zm0-1.25h-.9v-.46h.9Zm.24.24h.9v1h-.9ZM-61 481.7v-5.08h1.21l-1 5.08Zm1 0 .68-3.51.68 3.51Zm2.33 0H-58l-1-5.08h1.21Zm0-11.1-1.21-6.25h1.21Zm0-12.28-1.21-6.25h1.21Zm0-12.28-1.21-6.25h1.21Zm0-12.28-1.21-6.25h1.21Zm0-12.28-1.21-6.24h1.21Zm0-12.27-1.27-6.21h1.21Zm0-12.28-1.21-6.25h1.21Zm0-12.28-1.21-6.25h1.21Zm0-12.28-1.21-6.25h1.21Zm.57-8.06h-.9v-1h.9Zm0-1.25h-.9v-.46h.9Z" transform="translate(716.77 -66.15)" fill="url(#linear-gradient)"/>
        <path d="M30.07 511.17h.08a.44.44 0 0 0 .35-.5L18.53 442a.43.43 0 0 0-.5-.35.44.44 0 0 0-.35.5l12 68.65a.43.43 0 0 0 .39.37Z" transform="translate(716.77 -66.15)" fill="url(#linear-gradient-2)"/>
        <path d="M-16.23 511.17a.41.41 0 0 0 .42-.35l12-68.65a.43.43 0 0 0-.35-.5.43.43 0 0 0-.49.35l-12 68.65a.43.43 0 0 0 .35.5Z" transform="translate(716.77 -66.15)" fill="url(#linear-gradient-3)"/>
        <path d="M6.92 511.17a.43.43 0 0 0 .43-.43v-68.61a.43.43 0 0 0-.86 0v68.61a.43.43 0 0 0 .43.43Z" transform="translate(716.77 -66.15)" fill="url(#linear-gradient-4)"/>
        <path d="M-6.19 454.75H20a.43.43 0 0 0 0-.86H-6.19a.43.43 0 0 0-.43.43.43.43 0 0 0 .43.43Z" transform="translate(716.77 -66.15)" fill="url(#linear-gradient-5)"/>
        <path d="M-8.52 466.94h30.88a.43.43 0 0 0 .43-.43.43.43 0 0 0-.43-.43H-8.52a.43.43 0 0 0-.43.43.44.44 0 0 0 .43.43Z" transform="translate(716.77 -66.15)" fill="url(#linear-gradient-6)"/>
        <path d="M-10.49 479.12h34.83a.43.43 0 0 0 .43-.43.43.43 0 0 0-.43-.43h-34.83a.43.43 0 0 0-.43.43.43.43 0 0 0 .43.43Z" transform="translate(716.77 -66.15)" fill="url(#linear-gradient-7)"/>
        <path d="M-12.67 491.31h39.19a.43.43 0 0 0 0-.86h-39.19a.43.43 0 0 0-.43.43.43.43 0 0 0 .43.43Z" transform="translate(716.77 -66.15)" fill="url(#linear-gradient-8)"/>
        <path d="M-15 503.5h43.85a.43.43 0 0 0 0-.86H-15a.43.43 0 0 0-.43.43.43.43 0 0 0 .43.43Z" transform="translate(716.77 -66.15)" fill="url(#linear-gradient-9)"/>
        <path d="M6.91 454.75a.45.45 0 0 0 .32-.14l11-12.19a.43.43 0 0 0-.64-.58L6.91 453.68l-10.64-11.84a.44.44 0 0 0-.61 0 .43.43 0 0 0 0 .61l11 12.19a.42.42 0 0 0 .32.14Z" transform="translate(716.77 -66.15)" fill="url(#linear-gradient-10)"/>
        <path d="M6.9 466.94a.44.44 0 0 0 .3-.12l13.13-12.19a.43.43 0 0 0-.59-.63L6.9 465.92-5.9 454a.42.42 0 0 0-.6 0 .41.41 0 0 0 0 .6l13.11 12.22a.42.42 0 0 0 .29.12Z" transform="translate(716.77 -66.15)" fill="url(#linear-gradient-11)"/>
        <path d="M6.9 479.12a.46.46 0 0 0 .27-.09l15.46-12.19a.43.43 0 1 0-.54-.67l-15.19 12-15.15-12a.42.42 0 0 0-.6.07.42.42 0 0 0 .07.6L6.63 479a.46.46 0 0 0 .27.12Z" transform="translate(716.77 -66.15)" fill="url(#linear-gradient-12)"/>
        <path d="M6.9 491.31a.37.37 0 0 0 .24-.08l17.44-12.18a.43.43 0 0 0-.49-.71l-17.19 12-17.15-12a.43.43 0 0 0-.6.11.43.43 0 0 0 .11.6l17.39 12.18a.38.38 0 0 0 .25.08Z" transform="translate(716.77 -66.15)" fill="url(#linear-gradient-13)"/>
        <path d="M6.89 503.5a.39.39 0 0 0 .23-.07l19.62-12.18a.43.43 0 0 0 .14-.6.42.42 0 0 0-.59-.13l-19.39 12-19.34-12a.43.43 0 0 0-.6.13.45.45 0 0 0 .14.6l19.57 12.18a.38.38 0 0 0 .22.07Z" transform="translate(716.77 -66.15)" fill="url(#linear-gradient-14)"/>
        <path d="M4.6 388.66v-33.57a.43.43 0 0 1 .43-.43h3.76a.43.43 0 0 1 .43.43v33.57a.43.43 0 0 1-.43.43H5a.43.43 0 0 1-.4-.43Zm3.76-33.14h-2.9v32.71h2.9Z" transform="translate(716.77 -66.15)" fill="url(#linear-gradient-15)"/>
        <path class="cls-17" d="M5.06 359.25a.43.43 0 0 0 .3-.13l3.73-3.73a.43.43 0 0 0-.61-.61l-3.73 3.73a.43.43 0 0 0 0 .61.48.48 0 0 0 .31.13Z" transform="translate(716.77 -66.15)"/>
        <path class="cls-17" d="M8.79 359.25a.43.43 0 0 0 .3-.13.43.43 0 0 0 0-.61l-3.73-3.73a.43.43 0 1 0-.61.61l3.73 3.73a.48.48 0 0 0 .31.13Z" transform="translate(716.77 -66.15)"/>
        <path class="cls-18" d="M5.06 363a.43.43 0 0 0 .3-.13l3.73-3.73a.43.43 0 0 0-.61-.61l-3.73 3.73a.43.43 0 0 0 0 .61.48.48 0 0 0 .31.13Z" transform="translate(716.77 -66.15)"/>
        <path class="cls-18" d="M8.79 363a.43.43 0 0 0 .3-.13.43.43 0 0 0 0-.61l-3.73-3.73a.43.43 0 1 0-.61.61l3.73 3.73a.48.48 0 0 0 .31.13Z" transform="translate(716.77 -66.15)"/>
        <path class="cls-19" d="M5.06 366.71a.43.43 0 0 0 .3-.13l3.73-3.73a.43.43 0 0 0-.61-.61L4.75 366a.43.43 0 0 0 0 .61.48.48 0 0 0 .31.1Z" transform="translate(716.77 -66.15)"/>
        <path class="cls-19" d="M8.79 366.71a.43.43 0 0 0 .3-.13.43.43 0 0 0 0-.61l-3.73-3.73a.43.43 0 1 0-.61.61l3.73 3.73a.48.48 0 0 0 .31.13Z" transform="translate(716.77 -66.15)"/>
        <path class="cls-20" d="M5.06 370.44a.43.43 0 0 0 .3-.13l3.73-3.73a.43.43 0 1 0-.61-.61l-3.73 3.73a.43.43 0 0 0 0 .61.48.48 0 0 0 .31.13Z" transform="translate(716.77 -66.15)"/>
        <path class="cls-20" d="M8.79 370.44a.43.43 0 0 0 .3-.13.43.43 0 0 0 0-.61L5.36 366a.43.43 0 1 0-.61.61l3.73 3.73a.48.48 0 0 0 .31.1Z" transform="translate(716.77 -66.15)"/>
        <path class="cls-17" d="M5.06 374.17a.43.43 0 0 0 .3-.13l3.73-3.73a.43.43 0 0 0-.61-.61l-3.73 3.73a.43.43 0 0 0 0 .61.48.48 0 0 0 .31.13Z" transform="translate(716.77 -66.15)"/>
        <path class="cls-17" d="M8.79 374.17a.43.43 0 0 0 .3-.13.43.43 0 0 0 0-.61l-3.73-3.73a.43.43 0 1 0-.61.61L8.48 374a.48.48 0 0 0 .31.17Z" transform="translate(716.77 -66.15)"/>
        <path class="cls-21" d="M5.06 377.9a.43.43 0 0 0 .3-.13L9.09 374a.43.43 0 0 0-.61-.61l-3.73 3.73a.43.43 0 0 0 0 .61.48.48 0 0 0 .31.17Z" transform="translate(716.77 -66.15)"/>
        <path class="cls-21" d="M8.79 377.9a.43.43 0 0 0 .3-.13.43.43 0 0 0 0-.61l-3.73-3.73a.43.43 0 1 0-.61.61l3.73 3.73a.48.48 0 0 0 .31.13Z" transform="translate(716.77 -66.15)"/>
        <path class="cls-19" d="M5.06 381.63a.43.43 0 0 0 .3-.13l3.73-3.73a.43.43 0 0 0-.61-.61l-3.73 3.73a.43.43 0 0 0 0 .61.48.48 0 0 0 .31.13Z" transform="translate(716.77 -66.15)"/>
        <path class="cls-19" d="M8.79 381.63a.43.43 0 0 0 .3-.13.43.43 0 0 0 0-.61l-3.73-3.73a.43.43 0 0 0-.61.61l3.73 3.73a.48.48 0 0 0 .31.13Z" transform="translate(716.77 -66.15)"/>
        <path class="cls-22" d="M5.06 385.36a.43.43 0 0 0 .3-.13l3.73-3.73a.43.43 0 0 0-.61-.61l-3.73 3.73a.43.43 0 0 0 0 .61.48.48 0 0 0 .31.13Z" transform="translate(716.77 -66.15)"/>
        <path class="cls-22" d="M8.79 385.36a.43.43 0 0 0 .3-.13.43.43 0 0 0 0-.61l-3.73-3.73a.43.43 0 1 0-.61.61l3.73 3.73a.48.48 0 0 0 .31.13Z" transform="translate(716.77 -66.15)"/>
        <path d="M18.1 442.53h.08a.43.43 0 0 0 .35-.5l-9.32-53.45a.43.43 0 0 0-.5-.35.44.44 0 0 0-.35.5l9.32 53.44a.44.44 0 0 0 .42.36Z" transform="translate(716.77 -66.15)" fill="url(#linear-gradient-32)"/>
        <path d="M-4.26 442.53a.42.42 0 0 0 .42-.36l9.32-53.44a.43.43 0 0 0-.35-.5.44.44 0 0 0-.5.35L-4.68 442a.42.42 0 0 0 .35.5Z" transform="translate(716.77 -66.15)" fill="url(#linear-gradient-33)"/>
        <path d="M6.92 442.56a.43.43 0 0 0 .43-.43v-53.47a.43.43 0 0 0-.86 0v53.47a.43.43 0 0 0 .43.43Z" transform="translate(716.77 -66.15)" fill="url(#linear-gradient-34)"/>
        <path d="m6.5 405.66-2.69-12.18a.45.45 0 0 1 .09-.37.42.42 0 0 1 .33-.16h5.38a.44.44 0 0 1 .34.16.45.45 0 0 1 .08.37l-2.69 12.18a.43.43 0 0 1-.42.34.44.44 0 0 1-.42-.34Zm-1.73-11.85 2.15 9.76 2.16-9.76Z" transform="translate(716.77 -66.15)" fill="url(#linear-gradient-35)"/>
        <path d="M6.91 418.19a.42.42 0 0 1-.4-.28L1.9 405.72a.41.41 0 0 1 0-.39.44.44 0 0 1 .36-.19h9.25a.43.43 0 0 1 .4.58l-4.6 12.19a.42.42 0 0 1-.4.28ZM2.92 406l4 10.54 4-10.54Z" transform="translate(716.77 -66.15)" fill="url(#linear-gradient-36)"/>
        <path d="M6.54 430.15-.15 418a.42.42 0 0 1 0-.42.44.44 0 0 1 .37-.21h13.39a.43.43 0 0 1 .39.63l-6.7 12.15a.44.44 0 0 1-.38.23.45.45 0 0 1-.38-.23ZM1 418.19l6 10.86 6-10.86Z" transform="translate(716.77 -66.15)" fill="url(#linear-gradient-37)"/>
        <path d="M6.91 442.56a.44.44 0 0 1-.35-.17l-9-12.19a.45.45 0 0 1 0-.45.46.46 0 0 1 .39-.24H16a.44.44 0 0 1 .38.24.43.43 0 0 1 0 .45l-9.13 12.19a.41.41 0 0 1-.34.17Zm-8.2-12.18 8.2 11 8.22-11Z" transform="translate(716.77 -66.15)" fill="url(#linear-gradient-38)"/>
        <path d="M-4 442.56h22a.43.43 0 0 0 0-.86H-4a.43.43 0 0 0-.43.43.43.43 0 0 0 .43.43Z" transform="translate(716.77 -66.15)" fill="url(#linear-gradient-39)"/>
        <path d="M6.91 355.52a.43.43 0 0 0 .43-.43v-29.16a.43.43 0 0 0-.86 0v29.16a.43.43 0 0 0 .43.43Z" transform="translate(716.77 -66.15)" fill="url(#linear-gradient-40)"/>
        <path d="M8.6 380.17H34a.22.22 0 0 0 .21-.22v-2.59a.21.21 0 0 0-.21-.21.21.21 0 0 0-.22.21v2.37H8.6a.22.22 0 1 0 0 .44Z" transform="translate(716.77 -66.15)" fill="url(#linear-gradient-41)"/>
        <path d="M8.6 386.85h.05l25.44-6.68a.22.22 0 0 0-.11-.42l-25.44 6.67a.23.23 0 0 0-.15.27.22.22 0 0 0 .21.16Z" transform="translate(716.77 -66.15)" fill="url(#linear-gradient-42)"/>
        <path d="M28.84 381.53a.22.22 0 0 0 .22-.22V380a.22.22 0 0 0-.44 0v1.36a.22.22 0 0 0 .22.17Z" transform="translate(716.77 -66.15)" fill="url(#linear-gradient-43)"/>
        <path d="M23 383.08a.22.22 0 0 0 .22-.22V380a.22.22 0 1 0-.43 0v2.91a.22.22 0 0 0 .21.17Z" transform="translate(716.77 -66.15)" fill="url(#linear-gradient-44)"/>
        <path d="M17.07 384.62a.21.21 0 0 0 .21-.21V380a.21.21 0 0 0-.21-.22.22.22 0 0 0-.22.22v4.46a.21.21 0 0 0 .22.16Z" transform="translate(716.77 -66.15)" fill="url(#linear-gradient-45)"/>
        <path d="M11.18 386.15a.22.22 0 0 0 .22-.22v-6a.22.22 0 0 0-.22-.22.21.21 0 0 0-.18.29v6a.21.21 0 0 0 .18.15Z" transform="translate(716.77 -66.15)" fill="url(#linear-gradient-46)"/>
        <path d="M9.49 367.61c0 2.39.71 4.33 1.59 4.33s1.58-1.94 1.58-4.33-.71-4.32-1.58-4.32-1.59 1.93-1.59 4.32Z" transform="translate(716.77 -66.15)" fill="url(#linear-gradient-47)"/>
        <ellipse cx="725.14" cy="298.85" rx="1.58" ry="4.33" fill="url(#linear-gradient-48)"/>
        <ellipse cx="724.91" cy="308.59" rx="1.58" ry="4.33" fill="url(#linear-gradient-49)"/>
        <ellipse cx="727.57" cy="311.25" rx="1.58" ry="4.33" fill="url(#linear-gradient-50)"/>
        <path d="M5.15 353.51c0 2.39-.71 4.33-1.58 4.33S2 355.9 2 353.51s.71-4.32 1.59-4.32 1.56 1.94 1.56 4.32Z" transform="translate(716.77 -66.15)" fill="url(#linear-gradient-51)"/>
        <ellipse cx="723.03" cy="284.75" rx="1.58" ry="4.33" fill="url(#linear-gradient-52)"/>
        <ellipse cx="723.27" cy="294.49" rx="1.58" ry="4.33" fill="url(#linear-gradient-53)"/>
        <path d="M5.43 363.3c0 2.39-.71 4.32-1.59 4.32s-1.58-1.93-1.58-4.32S3 359 3.84 359s1.59 1.91 1.59 4.3Z" transform="translate(716.77 -66.15)" fill="url(#linear-gradient-54)"/>
        <path d="M-570.26 415.93v-.22a.38.38 0 0 1 0-.1v-.63h.19l3.35.12a.36.36 0 0 1 .19.05h.28l.24.31-.88 2.83-1.67-.07v49.81h-.54v-50.3h-1.14l-.24-.31.07-.2-.07-.09V416Zm-9.76 0v-.32a.5.5 0 0 1 0-.12v-.34a.14.14 0 0 1 0-.06v-.15h.19l3.35.12a.32.32 0 0 1 .19.05h.28l.25.31-.88 2.83-1.67-.07v49.81h-.55v-50.26h-1.13l-.24-.31.06-.2-.06-.09v-.12a.08.08 0 0 0 0-.05V416Zm-9.75 0v-.32a.5.5 0 0 0 0-.12v-.47h.18l3.35.12a.34.34 0 0 1 .19.05h.28l.24.31-.87 2.83-1.67-.07v49.81h-.55v-50.34h-1.13l-.24-.31.06-.2-.06-.09V416Z" transform="translate(716.77 -66.15)" fill="url(#linear-gradient-55)"/>
        <path d="M42.87 416v.93l-.05.06-.07.09.06.2-.24.31h-1.13v49.83h-.54v-49.67l-1.68.07-1.11-2.82.24-.31h.28a.34.34 0 0 1 .19-.05l3.35-.12h.18v.15a.14.14 0 0 0 0 .06v.26a.5.5 0 0 0 0 .12v.89Zm9.75 0v.91l-.05.06-.07.09.07.2-.25.31h-1.13v49.83h-.54v-49.65l-1.68.07-1.11-2.82.24-.31h.28a.36.36 0 0 1 .19-.05l3.35-.12h.19v.63a.38.38 0 0 1 0 .1v.75Zm9.76 0v.94l-.07.09.07.2-.24.31h-1.13v49.83h-.55v-49.62l-1.67.07-1.18-2.82.24-.31h.29a.32.32 0 0 1 .19-.05l3.35-.12h.19v.15a.14.14 0 0 1 0 .06v.3a.5.5 0 0 1 0 .12.38.38 0 0 1 0 .1v.75Z" transform="translate(716.77 -66.15)" fill="url(#linear-gradient-56)"/>
        <path d="M-372.75 467.59v3h-5.49v-9.67h.46l2.9-3.05h3.24v-7.9l2.46-7.75-2.46-3.42-10.13 5.36v-22.57h-6.47v-5.89h-5.4v5.89h-9.74v-.84h6.72v-1.89h-.34v-7.15h-6.34v-7.63h6.72v-1.89h-.38V395h-6.34v-7.62h6.72v-1.89h-.38v-7.16h-6.34v-1.84h56.32v-4.35h-49.6v-1.3h-.38v-7.15h-6.34v-5.6h6.72v-1.89h-.38v-7.16h-6.34v-5.6h6.72v-1.89h-.38v-7.15h-6.34V328h-.74v-7.7h-1v4.3h-3.52l2.6-2.6h.91v-.88h-63.05v-.81h-1V328h-.75v11.45h-35v.33h.36V342h-.36v64.07h-36.85v.33h.36v2.09h-1.08v10.74h5.34v22.55h-2.41V443h2.41v25.44h-2.41v1.17h2.41v1.9h.36v2.35h.65v-1.35h.6v-1h.4v-.27h5.08v1.36h1v2.78h5.03v1h-3.23v2h-1v2.24h.76a2.23 2.23 0 0 0 2.14-1.61h1.3v11.22h1.25v-11.75h6.78V489h.5v-5.73h3.22v9.35h7.31v11.54h1.5v-1.38h6.93v1.38h1.5v-1.38h1.22v1.38h15v-11.84h8.82v11.94h66.56v-17.21h30.63v17.46h32.87v-36.92Zm0 9.74H-380l4.76-4.77h2.45Zm-130.69-132.86h2.87l-2.65 11.59h-.22Zm120.65 132.86h-8.62l4.31-4.31 4.31 4.31Zm-1.8 1.8-2.51 2.51-2.51-2.51ZM-474 488.4v-.59h.24l-.11.59Zm.07.33-.07.33v-.33Zm-62.55-80.2v-1.15h1.2v1.15Zm1.53-1.15h1.2v1.15H-535Zm1.52 0h1.2v1.15h-1.2Zm1.53 0h1.2v1.15h-1.2Zm1.53 0h1.2v1.15h-1.2Zm1.52 0h1.2v1.15h-1.2Zm56.34 66.09v-1.17h1.16v1.17Zm-1.18 14h-5v-6.94l5.34 5.34Zm-45.31-68.2v4.49l-2-4.49Zm46.41-60.8v-1.17h1.16v1.17Zm0 16.43v-1.17h1.16v1.17Zm0 16.43v-1.17h1.16v1.17Zm0 16.43v-1.17h1.16v1.17Zm1.16 14.45v.48h-1.16v-.59h1.05Zm1.45 49.36-.18-.18h.18Zm-4.1.41v-.59h.24l-.11.59Zm.07.32-.07.34v-.34Zm.06-82.46h-.05v-.59h.24Zm1-.23v.23Zm-1.09.55-.07.34v-.34Zm-.39-.32h-1.17v-.59h1.17Zm-1.49 0H-477v-.59h1.16Zm-1.49 0h-1.16v-.59h1.16Zm3.43 16.42h-.02v-.59h.24Zm1-.22v.22Zm-1.09.55-.07.33v-.33Zm-.39-.33h-1.17v-.59h1.17Zm-1.49 0H-477v-.59h1.16Zm-1.49 0h-1.16v-.59h1.16Zm4.79 17.92V423h1.16v1.16Zm-.33 0h-.33l.31-1.18h.1Zm.33 32.86v-1.17h1.16V457Zm-1.18 14h-5v-6.93l5.34 5.33ZM-509 443h.31v14h-.63v-13.3Zm37.6-4.41v.49h-1.16v-.59h1.05Zm.32.33.16.16h-.16Zm-1.48 1.65v-1.17h1.16v1.17Zm-1.44 14.98V455h.24l-.11.59Zm.07.32-.07.34v-.34Zm-31 2.76h-3.16v-8.44h3.16Zm-3.16 1.4h3.16v7.16l-3.16-4.4Zm29.6-5.07h1.16v.59h-1.16Zm1.49 0h1.16v.59H-477Zm1.48 0h1.17v.59h-1.17Zm2.65.37v.22Zm-.85-.7h-5v-6.93l5.34 5.33Zm-4.77-15.19h1.16v1.17h-1.16Zm1.49 0h1.16v1.17H-477Zm1.48 0h1.17v1.17h-1.17Zm1.49 0h.07l-.07.34Zm1.06 0h.1v1.17h-.33Zm.06-.32v-.22.22Zm-1 0h-.09v-.59h.24Zm-.45 0h-1.17v-.59h1.17Zm-1.49 0H-477v-.59h1.16Zm-1.49 0h-1.16v-.59h1.16Zm-27.6 7.35h-3.16V443h3.16Zm-3.16 18 2.89 4h-2.89Zm29.6-8.58h1.16V457h-1.16Zm1.49 0h1.16V457H-477Zm1.48 0h1.17V457h-1.17Zm2.55 0h.1V457h-.33Zm.43-.32V455h1.05l.11.1v.49Zm1.48-.16.16.16h-.16Zm1.13-.25-.18-.18h.18Zm-2.8-.51.15-.77.77.77Zm-.46-2.75-5.56-5.56V443h7.28Zm2.13-11.27v-1.17h.49l.64.65v.52Zm1.13-1.9-.18-.18h.18Zm-2.8-.5.15-.78.77.78Zm-1 0h-5v-6.94l5.34 5.33ZM-478.5 423h1.16v1.16h-1.16Zm1.49 0h1.16v1.16H-477Zm1.48 0h1.17v1.16h-1.17Zm1.49 0h.07l-.07.33Zm1.12-.33v-.22.22Zm-1 0h-.08v-.59h.24Zm-.45 0h-1.17v-.59h1.17Zm-1.49 0H-477v-.59h1.16Zm-1.49 0h-1.16v-.59h1.16Zm-19.84-21.78v-7.16h.67v7.16Zm0-9.58h-.64v-1.17h.37Zm-1 0h-1.17v-1.17h1.17Zm3.29-1.17h1.06v1.17h-1.06Zm1.06-.32h-1.06v-.59h1.06Zm-2.87-.59Zm-.86.59h-.3v-.59h.16Zm-.62 0h-1.17v-.59h1.17Zm-1.49 0h-1.16v-.59h1.16Zm-1.49 0h-1.16v-.59h1.16Zm-1.48.76v.73h-.17Zm.32-.44h1.16v1.17h-1.16Zm1.49 0h1.16v1.17h-1.16Zm2.37 3.59v4.17l-.94-4.17Zm-.32 7.16h-2.47l1.24-5.43Zm-6.2 40.91h-3.16v-6.39h3.16Zm-3.74 0h-.63v-6.39h.63Zm-1.2 0h-.7v-6.39h.7Zm-1.86-2.19-1.91-4.2h1.91ZM-510 443l-.53 1.16V443Zm.17 2v12h-.7v-10.5Zm-1.86 12h-.5l-1.91-2.65 2.41-5.31Zm-1.7 0h-1.92l.74-1.63Zm34.94 14.35h1.16v.65h-1.16Zm1.49 0h1.16v.65h-1.2Zm1.48 0h1.17v.65h-1.17Zm2.65.36v.29Zm.14-.69.15-.77.77.77Zm-.46-2.75-5.56-5.56v-3.29h7.28Zm2.13-11.27v-1.17h.49l.64.64v.53Zm.63-2.41-1.93-1.92 1.47-7.58 1 4.94v4.56Zm.13-11.59h.37v2Zm.37-4.83h-.5l-1.93-1.93 1.47-7.58 1 4.95Zm-3.26-2.76-5.56-5.56v-3.28h7.28Zm2.13-11.27V423h.49l.64.64v.52Zm0-1.49v-.16l.16.16Zm-2.66-.91h-5v-6.94l5.34 5.34Zm-4.77-15.19h1.16v1.17h-1.16Zm1.49 0h1.16v1.17h-1.2Zm1.48 0h1.17v1.17h-1.17Zm2.55 0h.1v1.17h-.33Zm.43-.33v-.59h1.05l.11.11v.48Zm1.48-.16.16.16h-.16Zm1.13-.25-.18-.18h.18Zm-2.8-.5.15-.77.77.77Zm-1 0h-5v-6.94l5.34 5.34Zm-20.06-4.44H-495v-7.16h1.22Zm15.29-10.75h1.16v1.17h-1.16Zm1.49 0h1.16v1.17H-477Zm1.48 0h1.17v1.17h-1.17Zm2.55 0h.1v1.17h-.33Zm.43-.32v-.59h1.05l.11.1v.49Zm1.48-.17.16.17h-.16Zm1.13-.24-.18-.18h.18Zm-2.8-.51.15-.77.77.77Zm-1 0h-5V382l5.34 5.33Zm-20.06 0H-495v-11.6h1.22Zm-8.49-16.1h1.16v.59h-1.16Zm1.49 0h1.16v.59h-1.16Zm1.48 0h1.17v.59h-1.17Zm25.4.59h-.12v-.59h.24Zm1-.22v.22Zm-1.09.54-.07.34v-.34Zm-.39-.32h-1.17v-.59h1.17Zm-1.49 0H-477v-.59h1.16Zm-1.49 0h-1.16v-.59h1.16Zm-17.51.32h1.06v1.17h-1.06Zm1.06-.32h-1.06v-.59h1.06Zm-2.87-.59Zm-.86.59h-.3v-.59h.17Zm-.62.32v1.17h-1.17v-1.17Zm.32 0h.37l.27 1.17h-.64Zm19.32 0h1.16v1.17h-1.16Zm1.49 0h1.16v1.17H-477Zm1.48 0h1.17v1.17h-1.17Zm2.55 0h.1v1.17h-.33Zm.43-.32v-.59h1.05l.11.1v.49Zm1.48-.16.16.16h-.16Zm1.13-.25-.18-.18h.18Zm-2.8-.51.15-.77.77.77Zm-1 0h-5v-6.93l5.34 5.33Zm-20.06 0h-1.2V360.9h1.22Zm-5.52-14v-1.15h1.17v1.17Zm1.49-1.17h.37l.27 1.17h-.64Zm23.91-.32h-.08v-.59h.24Zm1-.22v.26Zm-1.09.54-.07.34v-.34Zm-.39-.32h-1.17v-.59h1.17Zm-1.49 0H-477v-.59h1.16Zm-1.49 0h-1.16v-.59h1.16Zm-17.51.32h1.06v1.17h-1.06Zm1.06-.32h-1.06v-.59h1.06Zm15.29.32h1.16v1.17h-1.16Zm1.49 0h1.16v1.17H-477Zm1.48 0h1.17v1.17h-1.17Zm2.55 0h.1v1.17h-.33Zm.43-.32v-.59h1.05l.11.1v.53Zm1.48-.16.16.16h-.16Zm1.13-.25-.18-.18h.18Zm-2.8-.51.15-.77.77.77Zm-1 0h-5v-6.93l5.34 5.33Zm-20.06-11.59v11.59H-495v-11.57Zm-2.87 11.92Zm-.86.59h-.3v-.59h.16Zm-.62 0h-1.17v-.59h1.17Zm-1.49 0h-1.16v-.59h1.16Zm-1.49 0h-1.16v-.59h1.16Zm-1.48.77v.72h-.17Zm.32-.45h1.16v1.17h-1.16Zm1.49 0h1.16v1.17h-1.16Zm4.28 3.6v11.59h-.22l-2.63-11.59Zm-1.22 11.59h-4.49l2.25-9.87Zm-5.7.92v-.59h.15Zm.83.77v.72h-.17Zm.32-.45h1.16v1.17h-1.16Zm1.49 0h1.16v1.17h-1.16Zm4.28 3.59v11.6h-.22l-2.63-11.6Zm-1.22 11.6h-4.49l2.25-9.87Zm-5.7.92v-.59h.15Zm2.86 3.91-1.64 7.16h-1.23v-7.16Zm-22.16 25.52h.65l3.12 6.84v9.32h4.24l2.91 6.39h-10.92Zm11 23.77-4.09 9-6.46-9Zm0 2.28v1.42l-3.07 6.74-.39-.55Zm-3.53 9.18-1.16 2.54h-.64l1.4-3.09Zm36.77 17.8h1.16v1.17h-1.16Zm1.49 0h1.16v1.17H-477Zm1.48 0h1.17v1.17h-1.17Zm2.55 0h.1v1.17h-.33Zm.43-.32v-.59h1.05l.11.1v.53Zm1.48-.16.16.16h-.16Zm1.13-.76h-.5l-1.93-1.92 1.47-7.59 1 4.95Zm-.37-11.6h.37v1.92Zm0-32.85h.37v1.91Zm.37-4.33-.18-.18h.18Zm-2.8-.5.15-.78.77.78Zm-.46-2.76-5.56-5.55v-3.29h7.28Zm2.13-11.26v-1.17h.49l.64.64v.53Zm1.13-2.41h-.51l-1.92-1.93 1.47-7.58 1 5Zm-3.26-2.75-5.56-5.56v-3.29h7.28Zm2.13-11.27v-1.17h.49l.64.64v.53Zm1.13-2.41h-.5l-1.93-1.92 1.47-7.59 1 4.95Zm-3.26-2.75-5.56-5.56v-3.29h7.28Zm2.13-11.27v-1.17h.49l.64.64v.53Zm1.13-2.41h-.5l-1.93-1.92 1.47-7.59 1 4.95Zm-3.26-2.75-5.56-5.56v-3.26h7.28Zm2.13-11.27v-1.15h.49l.64.64v.53Zm1.13-2.41h-.5l-1.93-1.92 1.47-7.58 1 4.95Zm-3.26-2.75-5.56-5.56v-3.28h7.28Zm-.52-11.27v-1.35h1.21V342Zm-.32 0h-1.2v-1.35h1.2Zm-1.53 0h-1.2v-1.35h1.2Zm-1.52 0h-1.21v-1.35h1.21Zm-1.53 0h-1.2v-1.35h1.2Zm-1.53 0h-1.2v-1.35h1.2Zm-1.52 0h-1.21v-1.35h1.21Zm-1.53 0h-1.2v-1.35h1.2Zm-1.53 0h-1.2v-1.35h1.2Zm-1.52 0h-1.21v-1.35h1.21Zm-1.53 0H-489v-1.35h1.2Zm-1.53 0h-1.2v-1.35h1.2Zm-1.52 0H-492v-1.35h1.21Zm-1.53 0h-1.2v-1.35h1.2Zm-1.53 0h-1.2v-1.35h1.2Zm-1.52 0h-1.21v-1.35h1.21Zm-1.53 0h-1.2v-1.35h1.2Zm-1.53 0h-1.2v-1.35h1.2Zm-1.52 0h-1.21v-1.35h1.24Zm3.48 2.43v11.59h-.22l-2.63-11.59Zm-1.22 11.59h-4.49l2.25-9.87Zm-5.7.92v-.59h.15Zm0 3.92h2.87l-2.65 11.59h-.22Zm0 16.42h2.87l-2.65 11.6h-.22Zm-5.6 31.21v-1.15h1.2v1.15Zm-.32 0h-1.21v-1.15h1.21Zm-1.53 0h-1.2v-1.15h1.2Zm-1.53 0h-1.2v-1.15h1.2Zm-1.52 0h-1.21v-1.15h1.21Zm-1.53 0h-1.2v-1.15h1.2Zm-1.53 0h-1.2v-1.15h1.2Zm-1.52 0h-1.21v-1.15h1.21Zm-1.53 0h-1.2v-1.15h1.2Zm-1.53 0h-1.2v-1.15h1.2Zm-1.52 0h-1.21v-1.15h1.21Zm-1.53 0h-1.2v-1.15h1.2Zm-1.53 0h-1.2v-1.15h1.2Zm.16 10.74v2.65h2v3.73H-527v-6.38Zm9.68 33.77-1.82 4H-522v8.39l-.77 1.69v-23Zm37.82 34.77h1.16v.59h-1.16Zm1.49 0h1.16v.59H-477Zm1.48 0h1.17v.59h-1.17Zm2.65.37v.22Zm.14-.69.15-.77.77.77Zm2.8.5-.18-.18h.18Zm0-.5h-.51l-1.92-1.92 1.47-7.59 1 4.95Zm-3.26-2.75-5.56-5.56v-3.29h7.28Zm2.13-11.27v-1.15h.49l.64.64v.53Zm67.69-.91h2.46l-2.46 2.47Zm13.91 0-3.35 3.35-3.36-3.35Zm-13.38 4.77 4.31-4.31 4.31 4.31h-8.61Zm6.81 1.8-2.51 2.51-2.51-2.51Zm11.31-6.57h6.76l-3.36 3.35Zm-85.21-50.78h-.5l-1.93-1.93 1.47-7.58 1 5Zm-.37-11.6h.37v1.91Zm.37-14.51-.37-1.92h.37Zm0-16.43-.37-1.92h.37Zm0-16.43-.37-1.91h.37Zm0-16.43-.37-1.91h.37Zm0-4.34h-.72v-1.35h.72Zm-1.05 0h-1.2v-1.35h1.2Zm-1.2-1.68v-.61h1.2v.61Zm-.32 0h-1.21v-.61h1.21Zm-1.53 0h-1.2v-.61h1.2Zm-1.53 0h-1.2v-.61h1.2Zm-1.52 0h-1.21v-.61h1.21Zm-1.53 0h-1.2v-.61h1.2Zm-1.53 0h-1.2v-.61h1.2Zm-1.52 0h-1.21v-.61h1.21Zm-1.53 0h-1.2v-.61h1.2Zm-1.53 0h-1.2v-.61h1.2Zm-1.52 0h-1.21v-.61h1.21Zm-1.53 0H-489v-.61h1.2Zm-1.53 0h-1.2v-.61h1.2Zm-1.52 0H-492v-.61h1.21Zm-1.53 0h-1.2v-.61h1.2Zm-1.53 0h-1.2v-.61h1.2Zm-1.52 0h-1.21v-.61h1.21Zm-1.53 0h-1.2v-.61h1.2Zm-1.53 0h-1.2v-.61h1.2Zm-1.52 0h-1.21v-.61h1.23Zm-1.53 0h-1.2v-.61h1.2Zm0 .33V342h-1.2v-1.35Zm-3.42 67.84H-506v-1.15h1.05Zm-1.37 0h-1.2v-1.15h1.2Zm-1.2-1.48v-.61h1.2v.61Zm-.33 0H-509v-.61h1.2Zm-1.52 0h-1.21v-.61h1.21Zm-1.53 0h-1.2v-.61h1.2Zm-1.53 0h-1.2v-.61h1.2Zm-1.52 0h-1.21v-.61h1.21Zm-1.53 0h-1.2v-.61h1.2Zm-1.53 0h-1.2v-.61h1.2Zm-1.52 0h-1.21v-.61h1.21Zm-1.53 0h-1.2v-.61h1.2Zm-1.53 0h-1.2v-.61h1.2Zm-1.52 0h-1.21v-.61h1.21Zm-1.53 0h-1.2v-.61h1.2Zm-1.53 0h-1.2v-.61h1.2Zm-1.53 0h-1.2v-.61h1.2Zm-1.52 0h-1.2v-.61h1.2Zm-1.53 0h-1.2v-.61h1.2Zm-1.53 0h-1.2v-.61h1.2Zm-1.52 0H-535v-.61h1.2Zm-1.53 0h-1.2v-.61h1.2Zm-1.53 0H-538v-.61h1.2Zm-1.52 0h-1.2v-.61h1.2Zm0 .33v1.15h-1.2v-1.15Zm.32 0h1.2v1.15H-538Zm10 11.89v6.38h-2.7l-3-6.38Zm4 7.36V440l-6.27-13.33Zm0 40.9h-1.2v1h-10v-.19l11.28-24.58Zm45.48 21.2h1.16v1.17h-1.16Zm1.49 0h1.16v1.17H-477Zm1.48 0h1.17v1.17h-1.17Zm2.55 0h.1v1.17h-.33Zm.43 0h1.16v1.17h-1.16Zm0-.33v-.59h1.05l.11.11v.48Zm1.48-.16.16.16h-.16Zm1.13-10.43-.37-1.92h.37Zm66.56 1.82 2.61 2.61h-2.61Zm10.17-.5h.77l3.11 3.11h-7Zm11.45 0h.77l3.11 3.11h-7Zm6.71 3.11-3.11-3.11h5.41v3.11Zm-6.41-11.68h-3.39v-9.67h3.39Zm-21.92-56h1.18v4.27h-1.18Zm3.28 0v4.27h-1.1v-4.27Zm-1.1-1v-.88h1.1v.88Zm2.1 5.27v-4.27h1.2v4.27Zm1.06-5.27h-1.06v-.88h1.2Zm-4.16-.88v.88h-1.18v-.88Zm-1.18-14.79h1.18v4.27h-1.18Zm3.28 0v4.27h-1.1v-4.27Zm-1.1-1V396h1.1v.89Zm2.1 5.27v-4.27h1.2v4.27Zm1.06-5.27h-1.06V396h1.2Zm-4.16-.89v.89h-1.18V396Zm-1.18-14.78h1.18v4.27h-1.18Zm3.28 0v4.27h-1.1v-4.27Zm-1.1-1v-.89h1.1v.89Zm2.1 5.27v-4.27h1.2v4.27Zm1.06-5.27h-1.06v-.89h1.2Zm-4.16-.89v.89h-1.18v-.89Zm-49.39-53.81 1.73 1.74H-454l1.73-1.74Zm6.06 0 1.73 1.74h-4.12l1.73-1.74Zm6.06 0 1.73 1.74h-4.12l1.73-1.74Zm6.1 0 1.74 1.74h-4.13l1.74-1.74Zm6.11 0 1.73 1.74h-4.12l1.73-1.74Zm1.25 0h2.95l-1.48 1.48Zm-4.63 1.48-1.48-1.48h2.95Zm-6.11 0-1.47-1.48h3Zm-6.08 0-1.45-1.45h2.9Zm-6.06 0-1.45-1.46h2.9Zm-6.06 0-1.45-1.46h2.9Zm35.53.28h-4.13l1.74-1.74h.65Zm-.49-1.74h3l-1.48 1.48Zm-7-.95 2.42-2.43 2.43 2.43Zm-6.11 0 2.43-2.43 2.43 2.43Zm-6.11 0 2.43-2.43 2.43 2.43Zm-6.05 0 2.4-2.4 2.4 2.4Zm-6.06 0 2.4-2.4 2.41 2.4Zm-6.06 0 2.4-2.4 2.41 2.4Zm-.3.95 1.73 1.74H-460l1.74-1.74ZM-461 327l-1.45-1.46h2.91Zm49.68.28 1.73-1.74h.65l1.74 1.74Zm-1-.26-1.48-1.48h2.95Zm-1 .26h-4.12l1.74-1.74h.65Zm-7.54-2.69 2.43-2.43 2.43 2.43Zm3.5-2.61h4l-2 2Zm-4.12 2-2-2h4Zm-6.11 0-2-2h4Zm-6.1 0-2-2h4Zm-6.11 0-2-2h4Zm-6.06 0-2-2h4Zm-6.06 0-2-2h4Zm-6.06 0-2-2h4Zm-3-1.78 2.41 2.4h-4.81Zm-3 1.78-2-2h4Zm.33 1.57 1.74 1.74h-4.13l1.74-1.74Zm-3.64 1.74h-.83v-1.74h2.57Zm64 39.31h1.18v4.27h-1.18Zm3.28 0v4.27h-1.1v-4.27Zm-1.1-1v-.88h1.1v.88Zm2.1 5.27v-4.27h1.01v4.27Zm1.06-5.27h-1.06v-.88h1.01Zm-4.16-.88v.88h-1.18v-.88Zm-1.27-12.72h1.18v4.27h-1.18Zm3.28 0v4.27h-1.1V352Zm-1.1-1v-.89h1.1v.89Zm2.1 5.27V352h1.1v4.27Zm1.1-5.27h-1.06v-.89h1.06Zm-4.16-.89v.89h-1.18v-.89Zm-1.18-12.76h1.18v4.27h-1.18Zm3.28 0v4.27h-1.1v-4.27Zm-1.1-1v-.88h1.1v.88Zm2.1 5.27v-4.27h1.06v4.27Zm1.06-5.27h-1.06v-.88h1.06Zm-4.16-.88v.88h-1.18v-.88Zm-2.93-9.88V328v-.68h-.91l-1.73-1.74Zm-9.62-.95 2.43-2.43 2.42 2.43Zm5.48-.62-2-2h4Zm-58-2 2.61 2.61h-3.52V322Zm-2.67 18.37h-.72v-.61h.72Zm-33.11-.61v.61h-1.2v-.61Zm-1.2.94h1.2V342h-1.2Zm-.69 66.36h-1.1v-.61h1.05Zm-35-.61v.61h-1.2v-.61Zm-1.2.94h1.2v1.15h-1.2Zm5.94 11.89h.37l10.61 22.55h-11Zm10.43 23.7-10.43 22.9V443Zm9.26 39.57v-4.13h3.22v4.13Zm44.4 7.29v-1.17h.49l.64.64v.53Zm67.69-4.85v-.81h30.63v.81Z" transform="translate(716.77 -66.15)" fill="url(#linear-gradient-57)"/>
        <path d="M-282.95 442.37a11 11 0 0 0-3.54 13.54c-2.22-.54-6-.2-7.57 1.47a6.59 6.59 0 0 0-1.43 6.38c-3.11.92-6.17 4.2-5 7.21-5.5-2.16-12.41.32-17.25 3.73a18.29 18.29 0 0 0-7.61 15.24c-3.21-1.09-6.88-.55-7.58 2.76-4.62-3.08-12.58-3.52-17.75-1.5a17.66 17.66 0 0 0-10.56 12.08c-3.27-3.09-9.84-2.82-13.07.32-7-6.53-17.28-9.53-26.81-9.21a36.77 36.77 0 0 0-25.37 11.55c-3.59-3-10.88-1.69-13.27 2.3a40.13 40.13 0 0 0-28.71-15.65 39 39 0 0 0-30.17 11.27c-6.52-6.18-17.38-8.54-25-3.76 2-15-10.61-29.54-24.51-35.57s-30.17-4.41-44.26 1.14c1.06-4.93-.36-12.53-3.86-16.17A15.78 15.78 0 0 0-610 445c-1.06-16.39-10.17-32.4-23.91-41.4a54.09 54.09 0 0 0-47.25-5.6c-15.25 5.5-27.89 19-33.23 34.27s-1.76 34.53 11.56 43.78c-16.14 24.12-13.79 59 5.44 80.76s53.59 28.32 79.49 15.24c13.23 10 36 11.33 51.08 4.42 2.83-1.31 5.62-2.92 8.72-3.28 4.4-.51 8.63 1.59 12.7 3.34 29.65 12.71 66 8 91.51-11.77a96.43 96.43 0 0 0 24.24 10.84c7.39 1.92 15.91 1.17 21.69-3.83 1.69-1.46 3.2-3.3 5.34-4 3.48-1.09 7 1.31 10.08 3.22a47 47 0 0 0 41.82 3.42 47 47 0 0 0 27.32-31.81c4.21 5.91 13.46 8.91 20.5 7.13a18.63 18.63 0 0 0 13.58-15.34c4 6.35 14.1 6.23 19.82 1.35s7.84-12.76 8.49-20.25.18-15.12 2-22.41c1.89-7.49 6.17-14.23 7.9-21.77s-.15-16.94-7.16-20.19c3.15-5.27-2-12.34-8.06-13.45s-11.53 1.26-16.62 4.7Z" transform="translate(716.77 -66.15)" fill="url(#radial-gradient)"/>
        <path d="M-244.4 442.39a11 11 0 0 1 3.53 13.55c2.22-.54 6-.2 7.57 1.47a6.61 6.61 0 0 1 1.43 6.39c3.1.92 6.16 4.2 4.94 7.21 5.51-2.16 12.42.34 17.25 3.75a18.29 18.29 0 0 1 7.6 15.24c3.21-1.08 6.88-.54 7.57 2.78 4.62-3.08 12.58-3.51 17.76-1.48a17.65 17.65 0 0 1 10.54 12.09c3.28-3.09 9.85-2.81 13.07.33 7-6.52 17.29-9.51 26.82-9.18A36.76 36.76 0 0 1-101 506.12c3.59-3 10.88-1.68 13.27 2.31A40.14 40.14 0 0 1-59 492.81a39 39 0 0 1 30.16 11.31c6.53-6.18 17.39-8.52 25-3.73-2-15 10.64-29.54 24.54-35.55S50.91 460.46 65 466c-1-4.94.38-12.53 3.88-16.17a15.78 15.78 0 0 1 13.83-4.52C83.78 429 92.9 413 106.65 404a54.1 54.1 0 0 1 47.22-5.49c15.24 5.52 27.86 19 33.19 34.3s1.72 34.54-11.61 43.76c16.12 24.14 13.73 59-5.53 80.76s-53.61 28.26-79.51 15.15c-13.23 10-36 11.3-51.08 4.37-2.83-1.31-5.61-2.93-8.71-3.29-4.41-.51-8.63 1.58-12.71 3.32-29.67 12.68-66 8-91.5-11.87a95.92 95.92 0 0 1-24.25 10.82c-7.39 1.92-15.91 1.15-21.68-3.85-1.69-1.47-3.2-3.31-5.33-4-3.49-1.1-7 1.29-10.09 3.2a47 47 0 0 1-41.82 3.37A46.94 46.94 0 0 1-204 542.66c-4.22 5.91-13.47 8.9-20.51 7.12a18.64 18.64 0 0 1-13.56-15.36c-4 6.34-14.11 6.21-19.82 1.33s-7.83-12.78-8.48-20.26-.15-15.13-2-22.41c-1.88-7.5-6.15-14.25-7.87-21.78s.16-16.94 7.18-20.18c-3.14-5.28 2-12.34 8.07-13.44s11.51 1.32 16.59 4.71Z" transform="translate(716.77 -66.15)" fill="url(#radial-gradient-2)"/>
        <path d="M125 479.69c-3.77-5-8.93-9.33-15.09-10.53-6.51-1.26-13.19 1.08-19 4.23S79.08 481.74 79 488.28a38.33 38.33 0 0 0-42.81 26.27 36.88 36.88 0 0 0-24-4.4 39.25 39.25 0 0 0-22.26 11.94 28.31 28.31 0 0 0-17.66-8c-6.59-.49-13.3 1.92-18.63 5.82a36.14 36.14 0 0 0-25.74-11.58c-9.65-.18-19.45 4.2-26.22 11.08a7.71 7.71 0 0 0-6.17-2 7.74 7.74 0 0 0-5.48 3.5 22.4 22.4 0 0 0-17.81-5.44c-6.35.88-12 5-15.42 10.43a28.33 28.33 0 0 0-18.64-8.9c-7-.47-14.67 1.2-20.12 5.66a26.69 26.69 0 0 0-15.13-12.52c-6.38-2-14.9-2.7-20.93.24.86-4.71-2.69-11.23-7.29-12.51.28-9.13-6.26-17.36-14.86-20.42a3.28 3.28 0 0 0 .14-3.21c-.51-1-2.7-1.64-3.82-1.7a14.91 14.91 0 0 0-2.06-10.54c-2-3.1-5.47-5.09-9-6a8.54 8.54 0 0 0-2.56-11.22c-1.6-1-4.68-2.43-6.21-1.37-1.52-1.06-4.6.34-6.2 1.37a8.53 8.53 0 0 0-2.56 11.22c-3.55.94-7.06 2.93-9 6a14.9 14.9 0 0 0-2.05 10.56c-1.12.06-3.31.7-3.83 1.7a3.31 3.31 0 0 0 .15 3.21c-8.6 3.06-15.14 11.29-14.86 20.42-4.61 1.28-8.15 7.8-7.29 12.51-6-2.94-14.55-2.28-20.94-.24a26.72 26.72 0 0 0-15.13 12.52c-5.45-4.46-13.08-6.13-20.11-5.66a28.37 28.37 0 0 0-18.65 8.87c-3.42-5.42-9.06-9.55-15.41-10.43a22.42 22.42 0 0 0-17.82 5.44 7.7 7.7 0 0 0-5.48-3.5 7.71 7.71 0 0 0-6.17 2c-6.76-6.88-16.57-11.26-26.21-11.08a36.12 36.12 0 0 0-25.66 11.57c-5.33-3.9-12.05-6.31-18.63-5.82a28.31 28.31 0 0 0-17.66 8 39.27 39.27 0 0 0-22.27-11.94 36.85 36.85 0 0 0-24 4.4A38.55 38.55 0 0 0-580 493.44a38.64 38.64 0 0 0-26.33-5.16c-.12-6.54-6.16-11.78-11.91-14.89s-12.52-5.49-19-4.23c-6.16 1.2-11.33 5.51-15.09 10.53a42 42 0 0 0-6.44 37.54A39.29 39.29 0 0 0-631.06 543c7.69 1.79 15.8 1.09 23.47-.85s15-5.08 22.21-8.21c8.48 8.91 20.94 15.35 33.17 16.7A53.24 53.24 0 0 0-517.1 542c9 6.71 20.43 9.47 31.66 9.33a52 52 0 0 0 31.21-11c6.43 6.05 13.66 10.45 22.47 11.06a39 39 0 0 0 25-7c1.39 5.47 6.67 9 11.95 11.08a45.22 45.22 0 0 0 42.65-6c4.42 5.79 10.59 9.37 17.88 9.26a23.83 23.83 0 0 0 18.7-9.73 19.2 19.2 0 0 0 14.83 9.13 19.21 19.21 0 0 0 16-6.88c1.6-2 3.09-4.42 5.58-4.85s4.51 1.21 6.68 2.22a14.16 14.16 0 0 0 8.8.94 14.19 14.19 0 0 0 8.81-.94c2.17-1 4.32-2.63 6.68-2.22s4 2.9 5.58 4.85a19.19 19.19 0 0 0 16 6.88 19.2 19.2 0 0 0 14.81-9.13 23.81 23.81 0 0 0 18.68 9.76c7.29.11 13.45-3.47 17.88-9.26a45.21 45.21 0 0 0 42.65 6c5.27-2 10.56-5.61 11.95-11.08a39 39 0 0 0 25 7c8.81-.61 16-5 22.47-11.06a52 52 0 0 0 31.21 11c11.23.14 22.65-2.62 31.66-9.33a53.23 53.23 0 0 0 35.11 8.62c12.2-1.39 24.7-7.83 33.2-16.74 7.26 3.13 14.56 6.27 22.22 8.21s15.77 2.64 23.47.85a39.29 39.29 0 0 0 27.76-25.74 42 42 0 0 0-6.45-37.54Z" transform="translate(716.77 -66.15)" fill="url(#radial-gradient-3)"/>
        <path fill="url(#linear-gradient-58)" d="M456.16 39.51h-3.72l-8.51 14.87h20.75l-8.52-14.87z"/>
        <path fill="url(#linear-gradient-59)" d="M454.3 54.38h-10.37v48.33h20.75V54.38H454.3z"/>
        <path fill="url(#linear-gradient-60)" d="M454.3 102.71h-10.37l1.55 6.04v18.59h17.65v-18.59l1.55-6.04H454.3z"/>
        <path fill="url(#linear-gradient-61)" d="M454.3 127.34h-8.82v28.81h17.65v-28.81h-8.83z"/>
        <path fill="url(#linear-gradient-62)" d="m423.7 359.09-8.54 8.14v1.34h8.54v-9.48z"/>
        <path fill="url(#linear-gradient-63)" d="m484.91 359.09 8.54 8.14v1.34h-8.54v-9.48z"/>
        <path fill="url(#linear-gradient-64)" d="m434.1 375.76-.87 3.33h10.86l-.88-3.33h-9.11z"/>
        <path fill="url(#linear-gradient-65)" d="M443.38 367.84h-9.45l-2.07 7.92h13.59l-2.07-7.92z"/>
        <g class="cls-60">
          <path class="cls-61" d="m443.59 368.66.22.85H433.5l.22-.85h9.87zm.56 2.14.23.85h-11.45l.23-.85h10.99zm-11.78 3 .23-.85h12.12l.22.85h-12.57z"/>
        </g>
        <path fill="url(#linear-gradient-66)" d="m426.17 375.76-.87 3.33h10.86l-.87-3.33h-9.12z"/>
        <path fill="url(#linear-gradient-67)" d="M435.46 367.84h-9.45l-2.07 7.92h13.59l-2.07-7.92z"/>
        <g class="cls-60">
          <path class="cls-61" d="m435.67 368.66.22.85h-10.32l.23-.85h9.87zm.56 2.14.22.85h-11.44l.23-.85h10.99zm-11.78 3 .22-.85h12.13l.22.85h-12.57z"/>
        </g>
        <path fill="url(#linear-gradient-68)" d="m474.51 375.76.87 3.33h-10.86l.87-3.33h9.12z"/>
        <path fill="url(#linear-gradient-69)" d="M465.23 367.84h9.44l2.08 7.92h-13.6l2.08-7.92z"/>
        <g class="cls-60">
          <path class="cls-61" d="m465.02 368.66-.23.85h10.32l-.22-.85h-9.87zm-.57 2.14-.22.85h11.44l-.22-.85h-11zm11.79 3-.23-.85h-12.12l-.22.85h12.57z"/>
        </g>
        <path fill="url(#linear-gradient-70)" d="m482.43 375.76.88 3.33h-10.87l.87-3.33h9.12z"/>
        <path fill="url(#linear-gradient-71)" d="M473.15 367.84h9.45l2.07 7.92h-13.59l2.07-7.92z"/>
        <g class="cls-60">
          <path class="cls-61" d="m472.94 368.66-.23.85h10.32l-.22-.85h-9.87zm-.56 2.14-.23.85h11.45l-.23-.85h-10.99zm11.78 3-.22-.85h-12.13l-.22.85h12.57z"/>
        </g>
        <path d="M-265.19 342c-2-32.19-6.1-58.33-7.71-58.33s-7.83 26.14-12.35 58.33a996.16 996.16 0 0 0-4.13 35.65h25.48a964.16 964.16 0 0 0-1.29-35.65Z" transform="translate(716.77 -66.15)" fill="url(#linear-gradient-72)"/>
        <path d="M-263.39 417.64h-29.68c-1 11.34-1.57 19-1.57 19h31.3s.01-7.64-.05-19Z" transform="translate(716.77 -66.15)" fill="url(#linear-gradient-73)"/>
        <path d="M-263.9 377.67h-25.48a2857.08 2857.08 0 0 0-3.69 40h29.68c-.07-11.09-.21-25.67-.51-40Z" transform="translate(716.77 -66.15)" fill="url(#linear-gradient-74)"/>
        <path d="M-259.74 342c2-32.19 6.11-58.33 7.71-58.33s7.83 26.14 12.36 58.33c1.39 9.91 2.81 22.7 4.12 35.65H-261c.25-12.93.66-25.72 1.26-35.65Z" transform="translate(716.77 -66.15)" fill="url(#linear-gradient-75)"/>
        <path d="M-261.53 417.64h29.67c1 11.34 1.57 19 1.57 19h-31.3s-.01-7.64.06-19Z" transform="translate(716.77 -66.15)" fill="url(#linear-gradient-76)"/>
        <path d="M-261 377.67h25.47c1.45 14.36 2.75 28.91 3.69 40h-29.67c.04-11.09.18-25.67.51-40Z" transform="translate(716.77 -66.15)" fill="url(#linear-gradient-77)"/>
        <path d="M-253.63 248v-25.7h-17.66V248c0 7.44-2.17 32.69-2.17 39.66 0 16.57 6.58 44.14 11 44.14s11-27.57 11-44.14c-.01-6.96-2.17-32.21-2.17-39.66Z" transform="translate(716.77 -66.15)" fill="url(#linear-gradient-78)"/>
        <path fill="url(#linear-gradient-79)" d="M454.3 17.05h-1.86v22.46h3.72V17.05h-1.86z"/>
        <path d="M-262.46 66.15a.92.92 0 0 0-.93.93v16.11h1.86V67.08a.93.93 0 0 0-.93-.93Z" transform="translate(716.77 -66.15)" fill="url(#linear-gradient-80)"/>
        <path class="cls-77" d="M449.8 156.15h.48v89.43h-.48z"/>
        <path style="mix-blend-mode:multiply" fill="#442363" opacity=".2" d="M463.13 130.02h-17.65v.48h15.01v7.32h.48v-7.32h2.16v-.48z"/>
        <path d="M445.47 115.02h17.66m0-3.12h-17.66" fill="none" stroke="#fff" stroke-miterlimit="10"/>
        <path d="M-258.61 126.44v30.41h6.53v.48h-7v-30.89h-13.75V126h20.76v.48Zm1.92-7.48a.65.65 0 0 0 .65-.65.65.65 0 0 0-.65-.65.65.65 0 0 0-.65.65.65.65 0 0 0 .65.69Zm-2.81 0a.65.65 0 0 0 .65-.65.65.65 0 0 0-.65-.65.65.65 0 0 0-.65.65.65.65 0 0 0 .65.69Zm-5.83 33a1.84 1.84 0 0 0-1.84 1.83 1.84 1.84 0 0 0 1.84 1.84 1.84 1.84 0 0 0 1.84-1.84 1.84 1.84 0 0 0-1.84-1.88Zm0 5.23a1.85 1.85 0 0 0-1.84 1.84 1.84 1.84 0 0 0 1.84 1.84 1.84 1.84 0 0 0 1.84-1.84 1.85 1.85 0 0 0-1.84-1.89Zm0-20.9a1.85 1.85 0 0 0-1.84 1.84 1.85 1.85 0 0 0 1.84 1.84 1.85 1.85 0 0 0 1.84-1.84 1.85 1.85 0 0 0-1.84-1.89Z" transform="translate(716.77 -66.15)" style="mix-blend-mode:multiply" opacity=".5" fill="#e3d2b4"/>
        <path d="M-256 217.37a.65.65 0 0 1-.65-.65.65.65 0 0 1 .65-.65.65.65 0 0 1 .65.65.65.65 0 0 1-.65.65Zm0 2.8a.65.65 0 0 1-.65-.64.65.65 0 0 1 .65-.65.65.65 0 0 1 .65.65.65.65 0 0 1-.65.64Z" transform="translate(716.77 -66.15)" fill="#442363" class="cls-60"/>
        <path class="cls-77" d="M-269.34 288.33a.65.65 0 0 1-.65-.64.65.65 0 0 1 .65-.65.65.65 0 0 1 .64.65.64.64 0 0 1-.64.64Zm0 2.81a.65.65 0 0 1-.65-.65.65.65 0 0 1 .65-.64.64.64 0 0 1 .64.64.65.65 0 0 1-.64.65Z" transform="translate(716.77 -66.15)" style="mix-blend-mode:multiply" opacity=".4"/>
        <path fill="url(#linear-gradient-81)" d="M453.83 359.09h.94v9.48h-.94z"/>
        <path fill="url(#linear-gradient-82)" d="m458.86 377.69.87 3.32h-10.86l.87-3.32h9.12z"/>
        <path fill="url(#linear-gradient-83)" d="M449.58 369.76h9.45l2.07 7.93h-13.59l2.07-7.93z"/>
        <g class="cls-60">
          <path class="cls-61" d="m449.37 370.58-.23.85h10.32l-.22-.85h-9.87zm-.56 2.15-.23.85h11.44l-.22-.85h-10.99zm11.78 2.99-.22-.85h-12.13l-.22.85h12.57z"/>
        </g>
        <path fill="url(#linear-gradient-84)" d="m466.79 377.69.87 3.32H456.8l.87-3.32h9.12z"/>
        <path fill="url(#linear-gradient-85)" d="M457.5 369.76h9.45l2.07 7.93h-13.59l2.07-7.93z"/>
        <g class="cls-60">
          <path class="cls-61" d="m457.29 370.58-.22.85h10.31l-.22-.85h-9.87zm-.56 2.15-.23.85h11.45l-.23-.85h-10.99zm11.78 2.99-.22-.85h-12.13l-.22.85h12.57z"/>
        </g>
        <path fill="url(#linear-gradient-86)" d="m450.94 377.69.87 3.32h-10.86l.87-3.32h9.12z"/>
        <path fill="url(#linear-gradient-87)" d="M441.66 369.76h9.44l2.08 7.93h-13.6l2.08-7.93z"/>
        <g class="cls-60">
          <path class="cls-61" d="m441.45 370.58-.23.85h10.32l-.22-.85h-9.87zm-.57 2.15-.22.85h11.44l-.22-.85h-11zm11.79 2.99-.23-.85h-12.12l-.22.85h12.57z"/>
        </g>
        <path d="M-252.43 342c-3.24-32.19-8.43-58.33-10-58.33s-6.79 26.14-10 58.33c-1 9.91-1.92 22.7-2.71 35.65h25.47c-.85-12.93-1.76-25.72-2.76-35.65Z" transform="translate(716.77 -66.15)" fill="url(#linear-gradient-88)"/>
        <path d="M-247.62 417.64h-29.68c-.52 11.34-.81 19-.81 19h31.3s-.3-7.64-.81-19Z" transform="translate(716.77 -66.15)" fill="url(#linear-gradient-89)"/>
        <path d="M-249.73 377.67h-25.47a2561 2561 0 0 0-2.1 40h29.68c-.51-11.09-1.23-25.67-2.11-40Z" transform="translate(716.77 -66.15)" fill="url(#linear-gradient-90)"/>
        <path style="mix-blend-mode:multiply" fill="#321d66" opacity=".4" d="M454.3 102.71h-10.37l1.55 6.04h17.65l1.55-6.04H454.3z"/>
        <path d="M-231.86 417.64c-.94-11.06-2.24-25.61-3.69-40a998.04 998.04 0 0 0-4.12-35.65c-4.17-29.64-9.78-54.15-11.89-57.85-.42-9.64-2.07-29.67-2.07-36.16v-44.24h-17.66V248c0 6.49-1.65 26.52-2.07 36.16-2.12 3.7-7.73 28.21-11.89 57.85a996.16 996.16 0 0 0-4.13 35.65 2857.08 2857.08 0 0 0-3.69 40l-.7 8.27-7.84 7.47v1.34h7.13l-.16 1.93 2.19 1-1.38 4.26 2.24 1-.87 3.32h16.15l.49 1.93h26.71l.5-1.93h16.15l-.87-3.32 2.23-1-1.37-4.26 2.18-1-.15-1.93h7.12v-1.34l-7.84-7.47-.7-8.29Z" transform="translate(716.77 -66.15)" style="mix-blend-mode:screen" fill="url(#linear-gradient-91)"/>
      </g>
    </g>
  </g>
</svg>