<?xml version="1.0" standalone="no"?>
<!DOCTYPE svg PUBLIC "-//W3C//DTD SVG 20010904//EN"
 "http://www.w3.org/TR/2001/REC-SVG-20010904/DTD/svg10.dtd">
<svg version="1.0" xmlns="http://www.w3.org/2000/svg"
 width="800.000000pt" height="800.000000pt" viewBox="0 0 800.000000 800.000000"
 preserveAspectRatio="xMidYMid meet">
<metadata>
Created by potrace 1.14, written by Peter Selinger 2001-2017
</metadata>
<g transform="translate(0.000000,800.000000) scale(0.100000,-0.100000)"
fill="#000000" stroke="none">
<path d="M0 6295 l0 -1705 1905 0 1905 0 0 265 0 265 74 0 c87 0 106 -5 106
-31 0 -16 -8 -19 -47 -21 l-48 -1 45 -6 45 -6 2 -200 c1 -110 2 -215 2 -232
l1 -33 65 0 65 0 0 235 c0 150 4 235 10 235 6 0 10 -85 10 -235 l0 -235 1930
0 1930 0 0 1705 0 1705 -4000 0 -4000 0 0 -1705z m3990 1010 c0 -97 4 -155 10
-155 6 0 10 -76 10 -209 l0 -209 80 -139 80 -138 0 -442 0 -443 -195 0 -195 0
0 448 0 447 75 130 75 130 0 213 c0 134 4 212 10 212 6 0 10 56 10 148 0 82 3
152 7 155 3 4 12 7 20 7 10 0 13 -32 13 -155z m150 -1905 c0 -6 -62 -10 -165
-10 -103 0 -165 4 -165 10 0 6 62 10 165 10 103 0 165 -4 165 -10z m0 -55 c0
-6 -64 -11 -165 -13 -150 -4 -165 -2 -165 13 0 16 15 17 165 14 101 -3 165 -8
165 -14z m0 -256 c0 -10 -4 -19 -10 -19 -5 0 -10 12 -10 26 0 14 4 23 10 19 6
-3 10 -15 10 -26z"/>
<path d="M167 2683 c-4 -58 -7 -137 -7 -175 l0 -68 -82 0 c-57 0 -78 -3 -68
-10 13 -9 13 -10 0 -10 -13 0 -13 -1 0 -11 11 -8 12 -12 3 -16 -7 -2 -13 -16
-13 -29 0 -23 3 -24 66 -24 57 0 65 -2 60 -17 -3 -10 -10 -46 -17 -81 l-12
-63 -48 47 c-27 27 -49 44 -49 38 0 -5 20 -30 45 -54 60 -59 60 -80 -2 -81
-27 0 -42 -3 -35 -6 14 -6 16 -43 2 -43 -5 0 -10 -9 -10 -20 0 -18 7 -20 65
-20 63 0 65 -1 61 -22 -3 -13 -10 -49 -17 -82 l-11 -58 -49 48 c-27 27 -49 44
-49 38 0 -5 20 -30 45 -54 44 -43 51 -62 39 -107 -5 -19 -13 -23 -45 -23 -32
0 -39 -3 -39 -20 0 -18 7 -20 65 -20 36 0 65 -2 65 -5 0 -4 -16 -89 -26 -134
-5 -23 -7 -22 -55 25 -27 26 -49 44 -49 39 0 -5 22 -32 50 -60 49 -50 49 -51
38 -88 -11 -34 -14 -37 -50 -37 -31 0 -38 -3 -38 -20 0 -18 7 -20 65 -20 36 0
65 -4 65 -8 0 -13 -20 -125 -27 -146 -4 -16 -12 -11 -57 30 l-51 49 53 -56
c50 -53 53 -58 45 -90 -8 -31 -13 -34 -51 -37 -34 -3 -42 -7 -42 -23 0 -17 7
-19 64 -19 59 0 65 -2 68 -22 l3 -23 685 -1 c377 0 657 1 623 3 l-63 4 0 74 0
75 60 0 60 0 0 80 0 80 -60 0 -61 0 3 73 3 72 58 3 57 3 0 79 0 80 -60 0 c-47
0 -60 3 -60 15 0 13 67 15 518 17 l517 3 3 38 3 37 -460 0 -461 0 0 80 0 80
-60 0 -60 0 0 50 0 50 60 0 60 0 0 85 0 85 -60 0 -60 0 0 50 0 50 60 0 60 0 0
85 0 85 -59 0 -59 0 -7 130 c-4 72 -11 130 -16 130 -5 0 -9 -4 -9 -10 0 -7
-200 -10 -580 -10 -380 0 -580 3 -580 10 0 6 -4 10 -8 10 -5 0 -12 -48 -15
-107z m68 47 c18 -20 17 -20 -13 -20 -25 0 -32 4 -32 20 0 11 6 20 13 20 8 0
22 -9 32 -20z m45 5 c-10 -12 -16 -13 -26 -4 -20 16 -18 19 12 19 22 0 25 -2
14 -15z m65 -5 c18 -20 17 -20 -20 -20 -37 0 -38 0 -20 20 10 11 19 20 20 20
1 0 10 -9 20 -20z m45 5 c-10 -12 -16 -13 -26 -4 -20 16 -18 19 12 19 22 0 25
-2 14 -15z m65 -5 c18 -20 17 -20 -20 -20 -37 0 -38 0 -20 20 10 11 19 20 20
20 1 0 10 -9 20 -20z m52 3 c-16 -16 -18 -16 -34 0 -16 16 -15 17 17 17 32 0
33 -1 17 -17z m58 -3 c18 -20 17 -20 -20 -20 -37 0 -38 0 -20 20 10 11 19 20
20 20 1 0 10 -9 20 -20z m52 3 c-16 -16 -18 -16 -34 0 -16 16 -15 17 17 17 32
0 33 -1 17 -17z m58 -3 c18 -20 17 -20 -20 -20 -37 0 -38 0 -20 20 10 11 19
20 20 20 1 0 10 -9 20 -20z m55 5 c-10 -12 -16 -13 -26 -4 -20 16 -18 19 12
19 22 0 25 -2 14 -15z m65 -5 c18 -20 17 -20 -25 -20 -42 0 -43 0 -25 20 10
11 21 20 25 20 4 0 15 -9 25 -20z m45 5 c-10 -12 -16 -13 -26 -4 -20 16 -18
19 12 19 22 0 25 -2 14 -15z m65 -5 c18 -20 17 -20 -25 -20 -42 0 -43 0 -25
20 10 11 21 20 25 20 4 0 15 -9 25 -20z m45 5 c-10 -12 -16 -13 -26 -4 -20 16
-18 19 12 19 22 0 25 -2 14 -15z m65 -5 c18 -20 17 -20 -25 -20 -42 0 -43 0
-25 20 10 11 21 20 25 20 4 0 15 -9 25 -20z m45 5 c-10 -12 -16 -13 -26 -4
-20 16 -18 19 12 19 22 0 25 -2 14 -15z m65 -5 c18 -20 17 -20 -20 -20 -37 0
-38 0 -20 20 10 11 19 20 20 20 1 0 10 -9 20 -20z m55 5 c-10 -12 -16 -13 -26
-4 -20 16 -18 19 12 19 22 0 25 -2 14 -15z m55 -5 c18 -20 17 -20 -20 -20 -37
0 -38 0 -20 20 10 11 19 20 20 20 1 0 10 -9 20 -20z m55 5 c-10 -12 -16 -13
-26 -4 -20 16 -18 19 12 19 22 0 25 -2 14 -15z m60 -5 c0 -16 -7 -20 -32 -20
-30 0 -31 0 -13 20 10 11 24 20 32 20 7 0 13 -9 13 -20z m-1130 -55 c-7 -8
-16 -15 -21 -15 -5 0 -9 7 -9 15 0 9 9 15 21 15 18 0 19 -2 9 -15z m70 0 c11
-13 8 -15 -20 -15 -28 0 -31 2 -20 15 7 8 16 15 20 15 4 0 13 -7 20 -15z m42
3 c-9 -9 -15 -9 -24 0 -9 9 -7 12 12 12 19 0 21 -3 12 -12z m68 -3 c11 -13 8
-15 -20 -15 -28 0 -31 2 -20 15 7 8 16 15 20 15 4 0 13 -7 20 -15z m42 3 c-9
-9 -15 -9 -24 0 -9 9 -7 12 12 12 19 0 21 -3 12 -12z m68 -3 c11 -13 8 -15
-20 -15 -28 0 -31 2 -20 15 7 8 16 15 20 15 4 0 13 -7 20 -15z m42 3 c-9 -9
-15 -9 -24 0 -9 9 -7 12 12 12 19 0 21 -3 12 -12z m68 -3 c11 -13 8 -15 -20
-15 -28 0 -31 2 -20 15 7 8 16 15 20 15 4 0 13 -7 20 -15z m55 5 c-3 -5 -12
-10 -20 -10 -8 0 -17 5 -20 10 -4 6 5 10 20 10 15 0 24 -4 20 -10z m55 -5 c11
-13 8 -15 -20 -15 -28 0 -31 2 -20 15 7 8 16 15 20 15 4 0 13 -7 20 -15z m52
3 c-9 -9 -15 -9 -24 0 -9 9 -7 12 12 12 19 0 21 -3 12 -12z m58 -3 c11 -13 8
-15 -20 -15 -28 0 -31 2 -20 15 7 8 16 15 20 15 4 0 13 -7 20 -15z m52 3 c-9
-9 -15 -9 -24 0 -9 9 -7 12 12 12 19 0 21 -3 12 -12z m68 -3 c11 -13 7 -15
-25 -15 -32 0 -36 2 -25 15 7 8 18 15 25 15 7 0 18 -7 25 -15z m42 3 c-9 -9
-15 -9 -24 0 -9 9 -7 12 12 12 19 0 21 -3 12 -12z m68 -3 c11 -13 8 -15 -20
-15 -28 0 -31 2 -20 15 7 8 16 15 20 15 4 0 13 -7 20 -15z m55 5 c-3 -5 -12
-10 -20 -10 -8 0 -17 5 -20 10 -4 6 5 10 20 10 15 0 24 -4 20 -10z m55 -5 c11
-13 8 -15 -20 -15 -28 0 -31 2 -20 15 7 8 16 15 20 15 4 0 13 -7 20 -15z m52
3 c-9 -9 -15 -9 -24 0 -9 9 -7 12 12 12 19 0 21 -3 12 -12z m58 -3 c11 -13 8
-15 -20 -15 -28 0 -31 2 -20 15 7 8 16 15 20 15 4 0 13 -7 20 -15z m60 0 c0
-8 -4 -15 -9 -15 -5 0 -14 7 -21 15 -10 13 -9 15 9 15 12 0 21 -6 21 -15z m50
-175 c0 -5 -4 -10 -10 -10 -5 0 -10 5 -10 10 0 6 5 10 10 10 6 0 10 -4 10 -10z
m40 0 c0 -5 -4 -10 -10 -10 -5 0 -10 5 -10 10 0 6 5 10 10 10 6 0 10 -4 10
-10z m40 0 c0 -5 -4 -10 -10 -10 -5 0 -10 5 -10 10 0 6 5 10 10 10 6 0 10 -4
10 -10z m-80 -71 c0 -24 -4 -38 -10 -34 -5 3 -10 22 -10 41 0 19 5 34 10 34 6
0 10 -18 10 -41z m40 0 c0 -24 -4 -38 -10 -34 -5 3 -10 22 -10 41 0 19 5 34
10 34 6 0 10 -18 10 -41z m40 1 c0 -22 -4 -40 -10 -40 -5 0 -10 18 -10 40 0
22 5 40 10 40 6 0 10 -18 10 -40z m-1430 -30 c0 -5 -4 -10 -10 -10 -5 0 -10 5
-10 10 0 6 5 10 10 10 6 0 10 -4 10 -10z m30 0 c0 -5 -4 -10 -10 -10 -5 0 -10
5 -10 10 0 6 5 10 10 10 6 0 10 -4 10 -10z m30 0 c0 -5 -4 -10 -10 -10 -5 0
-10 5 -10 10 0 6 5 10 10 10 6 0 10 -4 10 -10z m30 0 c0 -5 -4 -10 -10 -10 -5
0 -10 5 -10 10 0 6 5 10 10 10 6 0 10 -4 10 -10z m14 -157 c8 -54 7 -113 -2
-113 -5 0 -16 8 -24 18 -13 14 -14 26 -5 75 6 31 14 57 17 57 4 0 10 -17 14
-37z m1246 -13 c0 -5 -4 -10 -10 -10 -5 0 -10 5 -10 10 0 6 5 10 10 10 6 0 10
-4 10 -10z m40 0 c0 -5 -4 -10 -10 -10 -5 0 -10 5 -10 10 0 6 5 10 10 10 6 0
10 -4 10 -10z m40 0 c0 -5 -4 -10 -10 -10 -5 0 -10 5 -10 10 0 6 5 10 10 10 6
0 10 -4 10 -10z m-80 -66 c0 -27 -4 -43 -10 -39 -17 11 -11 85 7 85 2 0 3 -21
3 -46z m40 0 c0 -27 -4 -43 -10 -39 -17 11 -11 85 7 85 2 0 3 -21 3 -46z m40
1 c0 -25 -4 -45 -10 -45 -5 0 -10 20 -10 45 0 25 5 45 10 45 6 0 10 -20 10
-45z m-1430 -57 c0 -9 4 -8 10 2 9 14 14 2 8 -17 -6 -16 -38 -9 -38 9 0 10 5
18 10 18 6 0 10 -6 10 -12z m80 -8 c0 -11 -4 -20 -10 -20 -5 0 -10 9 -10 20 0
11 5 20 10 20 6 0 10 -9 10 -20z m25 1 c3 -5 1 -12 -5 -16 -5 -3 -10 1 -10 9
0 18 6 21 15 7z m2 -199 c6 -75 -1 -87 -29 -54 -13 14 -14 27 -5 80 13 79 26
69 34 -26z m1248 58 c-3 -5 -10 -10 -16 -10 -5 0 -9 5 -9 10 0 6 7 10 16 10 8
0 12 -4 9 -10z m35 0 c0 -5 -4 -10 -10 -10 -5 0 -10 5 -10 10 0 6 5 10 10 10
6 0 10 -4 10 -10z m40 0 c0 -5 -4 -10 -10 -10 -5 0 -10 5 -10 10 0 6 5 10 10
10 6 0 10 -4 10 -10z m-72 -63 c2 -28 -1 -37 -12 -37 -12 0 -16 11 -16 41 0
52 24 48 28 -4z m32 3 c0 -22 -4 -40 -10 -40 -5 0 -10 18 -10 40 0 22 5 40 10
40 6 0 10 -18 10 -40z m40 0 c0 -22 -4 -40 -10 -40 -5 0 -10 18 -10 40 0 22 5
40 10 40 6 0 10 -18 10 -40z m-1350 -96 c0 -15 -6 -24 -16 -24 -11 0 -14 5
-10 16 3 9 6 22 6 30 0 9 5 12 10 9 6 -3 10 -17 10 -31z m30 -15 c0 -5 -4 -9
-10 -9 -5 0 -10 7 -10 16 0 8 5 12 10 9 6 -3 10 -10 10 -16z m1240 -99 c0 -5
-4 -10 -10 -10 -5 0 -10 5 -10 10 0 6 5 10 10 10 6 0 10 -4 10 -10z m40 0 c0
-5 -4 -10 -10 -10 -5 0 -10 5 -10 10 0 6 5 10 10 10 6 0 10 -4 10 -10z m40 0
c0 -5 -4 -10 -10 -10 -5 0 -10 5 -10 10 0 6 5 10 10 10 6 0 10 -4 10 -10z
m-1322 -97 l4 -78 -26 25 c-25 25 -25 27 -14 88 15 81 30 67 36 -35z m1244 65
c9 -25 3 -71 -9 -75 -9 -3 -13 9 -13 41 0 43 12 62 22 34z m38 -33 c0 -25 -4
-45 -10 -45 -5 0 -10 20 -10 45 0 25 5 45 10 45 6 0 10 -20 10 -45z m40 -1 c0
-32 -4 -44 -12 -42 -16 6 -22 32 -14 64 10 40 26 27 26 -22z m-1333 -124 c7 0
13 -4 13 -10 0 -5 -14 -10 -31 -10 -24 0 -30 3 -25 16 3 9 6 23 7 32 0 13 3
11 11 -5 6 -13 17 -23 25 -23z m10 -82 c-3 -8 -6 -5 -6 6 -1 11 2 17 5 13 3
-3 4 -12 1 -19z m1248 -28 c3 -5 -1 -10 -9 -10 -9 0 -16 5 -16 10 0 6 4 10 9
10 6 0 13 -4 16 -10z m35 -6 c0 -8 -4 -12 -10 -9 -5 3 -10 10 -10 16 0 5 5 9
10 9 6 0 10 -7 10 -16z m40 6 c0 -5 -7 -10 -16 -10 -8 0 -12 5 -9 10 3 6 10
10 16 10 5 0 9 -4 9 -10z m-1326 -37 c9 -55 7 -133 -2 -133 -5 0 -17 8 -26 19
-15 17 -16 26 -5 85 7 36 16 66 19 66 4 0 10 -17 14 -37z m1256 -33 c0 -29 -4
-40 -15 -40 -11 0 -15 11 -15 40 0 29 4 40 15 40 11 0 15 -11 15 -40z m30 0
c0 -22 -4 -40 -10 -40 -5 0 -10 18 -10 40 0 22 5 40 10 40 6 0 10 -18 10 -40z
m40 0 c0 -29 -4 -40 -15 -40 -11 0 -15 11 -15 40 0 29 4 40 15 40 11 0 15 -11
15 -40z m-1322 -135 c-2 -3 -15 -6 -29 -7 -20 -3 -24 1 -24 22 -1 41 6 44 32
15 14 -14 23 -28 21 -30z m-1 -77 c-3 -7 -5 -2 -5 12 0 14 2 19 5 13 2 -7 2
-19 0 -25z"/>
<path d="M6579 2431 c11 -7 11 -9 0 -14 -10 -4 -10 -6 -1 -6 17 -1 15 -21 -3
-21 -14 0 -15 -72 -15 -612 l1 -613 -333 -2 c-183 -1 -339 -2 -345 -3 -10 0
-13 -26 -13 -95 l0 -95 50 0 50 0 0 -94 0 -95 -44 25 -43 24 -16 -23 c-13 -20
-13 -29 4 -82 10 -33 19 -90 19 -127 l0 -68 855 0 855 0 0 30 c0 27 3 30 29
30 26 0 30 -4 34 -32 l4 -33 1 33 c2 40 24 42 40 5 l12 -28 -5 27 c-4 20 -1
28 9 28 9 0 16 -13 19 -32 2 -18 5 32 5 112 1 80 5 407 9 728 l6 582 -57 0
c-37 0 -55 4 -51 11 4 5 -3 18 -14 28 -12 10 -21 26 -21 35 0 11 -9 16 -30 16
-30 0 -35 -11 -33 -77 1 -8 -11 -13 -27 -13 -23 0 -29 5 -34 33 -5 25 -9 29
-16 17 -5 -8 -10 -24 -11 -35 l0 -20 -9 20 c-5 11 -9 49 -9 83 -1 46 -4 63
-13 60 -7 -3 -14 -17 -16 -31 -3 -27 -4 -27 -88 -27 -46 0 -85 3 -85 8 -1 4
-3 16 -5 27 -2 11 -12 65 -23 120 -12 55 -21 101 -21 103 0 1 11 2 24 2 32 0
36 7 29 58 l-6 42 -341 0 c-195 0 -335 -4 -327 -9z m314 -8 c-7 -2 -19 -2 -25
0 -7 3 -2 5 12 5 14 0 19 -2 13 -5z m140 0 c-7 -2 -19 -2 -25 0 -7 3 -2 5 12
5 14 0 19 -2 13 -5z m110 0 c-7 -2 -19 -2 -25 0 -7 3 -2 5 12 5 14 0 19 -2 13
-5z m-523 -23 c0 -5 -4 -10 -10 -10 -5 0 -10 5 -10 10 0 6 5 10 10 10 6 0 10
-4 10 -10z m30 0 c0 -5 -4 -10 -10 -10 -5 0 -10 5 -10 10 0 6 5 10 10 10 6 0
10 -4 10 -10z m30 0 c0 -5 -4 -10 -10 -10 -5 0 -10 5 -10 10 0 6 5 10 10 10 6
0 10 -4 10 -10z m30 0 c0 -5 -4 -10 -10 -10 -5 0 -10 5 -10 10 0 6 5 10 10 10
6 0 10 -4 10 -10z m50 0 c0 -5 -4 -10 -10 -10 -5 0 -10 5 -10 10 0 6 5 10 10
10 6 0 10 -4 10 -10z m30 0 c0 -5 -4 -10 -10 -10 -5 0 -10 5 -10 10 0 6 5 10
10 10 6 0 10 -4 10 -10z m30 0 c0 -5 -4 -10 -10 -10 -5 0 -10 5 -10 10 0 6 5
10 10 10 6 0 10 -4 10 -10z m30 0 c0 -5 -4 -10 -10 -10 -5 0 -10 5 -10 10 0 6
5 10 10 10 6 0 10 -4 10 -10z m50 0 c0 -5 -9 -10 -20 -10 -11 0 -20 5 -20 10
0 6 9 10 20 10 11 0 20 -4 20 -10z m30 0 c0 -5 -4 -10 -10 -10 -5 0 -10 5 -10
10 0 6 5 10 10 10 6 0 10 -4 10 -10z m30 0 c0 -5 -4 -10 -10 -10 -5 0 -10 5
-10 10 0 6 5 10 10 10 6 0 10 -4 10 -10z m30 0 c0 -5 -4 -10 -10 -10 -5 0 -10
5 -10 10 0 6 5 10 10 10 6 0 10 -4 10 -10z m50 0 c0 -5 -9 -10 -20 -10 -11 0
-20 5 -20 10 0 6 9 10 20 10 11 0 20 -4 20 -10z m30 0 c0 -5 -4 -10 -10 -10
-5 0 -10 5 -10 10 0 6 5 10 10 10 6 0 10 -4 10 -10z m30 0 c0 -5 -4 -10 -10
-10 -5 0 -10 5 -10 10 0 6 5 10 10 10 6 0 10 -4 10 -10z m50 0 c0 -5 -9 -10
-20 -10 -11 0 -20 5 -20 10 0 6 9 10 20 10 11 0 20 -4 20 -10z m30 0 c0 -5 -4
-10 -10 -10 -5 0 -10 5 -10 10 0 6 5 10 10 10 6 0 10 -4 10 -10z m30 0 c0 -5
-4 -10 -10 -10 -5 0 -10 5 -10 10 0 6 5 10 10 10 6 0 10 -4 10 -10z m30 0 c0
-5 -4 -10 -10 -10 -5 0 -10 5 -10 10 0 6 5 10 10 10 6 0 10 -4 10 -10z m-606
-87 c-3 -16 -14 -62 -24 -103 l-18 -75 -1 103 -1 102 25 0 c21 0 24 -3 19 -27z
m86 -75 c-1 -116 -9 -114 -34 6 -20 99 -21 96 9 96 l25 0 0 -102z m41 30 c1
-40 3 -97 4 -126 1 -29 -2 -55 -5 -57 -12 -7 -20 62 -20 163 0 110 19 128 21
20z m409 56 c0 -9 -5 -46 -12 -81 l-12 -64 -53 53 c-39 38 -53 60 -53 80 0 28
1 28 65 28 53 0 65 -3 65 -16z m-480 -186 c0 -5 -18 -8 -41 -8 -29 0 -40 4
-36 13 2 7 10 39 17 72 7 33 15 64 18 70 5 8 40 -117 42 -147z m517 74 c6 -31
12 -63 12 -69 1 -19 -23 -16 -42 5 -15 16 -15 26 -5 75 7 31 14 54 17 51 3 -3
11 -31 18 -62z m-67 -69 c0 -9 -16 -13 -50 -13 l-50 0 0 62 0 62 50 -49 c28
-27 50 -55 50 -62z m-510 -35 c0 -9 4 -8 11 2 9 12 12 13 16 1 4 -10 7 -11 13
-1 9 14 30 5 30 -13 0 -7 -17 -12 -45 -13 -37 0 -45 3 -45 18 0 10 5 18 10 18
6 0 10 -6 10 -12z m441 0 c0 -10 2 -10 6 0 6 14 43 16 43 2 0 -20 -6 -24 -37
-26 -27 -2 -33 2 -33 17 0 21 20 27 21 7z m117 0 c17 -17 15 -24 -8 -24 -13 0
-20 7 -20 18 0 21 11 23 28 6z m-548 -75 c-1 -5 -12 -53 -25 -108 l-23 -100
-1 108 -1 107 25 0 c14 0 25 -3 25 -7z m80 -98 c0 -58 -2 -105 -4 -105 -5 0
-46 175 -46 196 0 8 10 14 25 14 l25 0 0 -105z m49 -10 c-1 -107 -8 -137 -23
-99 -3 9 -6 60 -6 115 0 83 3 99 15 99 14 0 16 -17 14 -115z m392 35 l-15 -80
-53 52 c-39 38 -53 60 -53 80 0 28 0 28 68 28 l69 0 -16 -80z m259 -50 l0
-131 -87 3 -87 3 -23 115 c-12 63 -22 121 -22 128 -1 9 27 12 109 12 l110 0 0
-130z m-730 -67 c0 -9 -15 -13 -41 -13 -34 0 -40 3 -35 18 3 9 9 35 14 57 26
109 23 107 43 25 10 -41 18 -81 19 -87z m516 75 c7 -35 13 -73 14 -86 0 -23 0
-23 -29 5 -29 28 -29 29 -19 91 6 34 13 60 16 58 2 -3 10 -33 18 -68z m-66
-75 c0 -9 -16 -13 -50 -13 l-50 0 0 62 0 62 50 -49 c28 -27 50 -55 50 -62z
m555 79 c-12 -61 -17 -72 -27 -72 -21 0 -58 43 -58 66 0 19 6 23 38 26 46 4
51 2 47 -20z m44 -30 c-1 -38 -2 -42 -9 -22 -12 37 -12 82 0 75 6 -3 10 -27 9
-53z m-14 -69 c7 -45 -2 -55 -25 -28 -8 10 -10 30 -5 62 8 53 17 43 30 -34z
m-60 -33 l-7 -22 -24 23 c-15 14 -24 34 -24 53 l0 31 31 -31 c24 -24 29 -37
24 -54z m-975 20 c-10 -6 -11 -10 -2 -10 6 0 12 -4 12 -9 0 -5 -20 -9 -45 -8
-37 0 -45 4 -45 19 0 15 8 18 48 18 34 0 43 -3 32 -10z m433 -8 c-3 -14 -14
-19 -39 -19 -26 0 -34 4 -34 19 0 14 8 18 39 18 33 0 38 -3 34 -18z m52 8 c-3
-5 1 -10 9 -10 9 0 16 -4 16 -10 0 -5 -9 -10 -20 -10 -13 0 -20 7 -20 20 0 11
5 20 11 20 5 0 7 -4 4 -10z m-405 -14 c0 -3 -4 -8 -10 -11 -5 -3 -10 -1 -10 4
0 6 5 11 10 11 6 0 10 -2 10 -4z m935 -26 c18 -19 17 -20 -3 -20 -15 0 -22 6
-22 20 0 11 2 20 3 20 2 0 12 -9 22 -20z m-85 -5 c0 -8 -4 -15 -10 -15 -5 0
-10 7 -10 15 0 8 5 15 10 15 6 0 10 -7 10 -15z m25 -5 c3 -5 1 -10 -4 -10 -6
0 -11 5 -11 10 0 6 2 10 4 10 3 0 8 -4 11 -10z m-1011 -57 c-4 -21 -15 -69
-24 -108 l-18 -70 -1 108 -1 107 25 0 c24 0 26 -2 19 -37z m84 -73 c1 -57 0
-101 -4 -98 -8 9 -43 156 -44 186 0 19 5 23 23 20 21 -3 22 -8 25 -108z m48
-23 c1 -123 -7 -161 -20 -96 -3 17 -6 76 -6 131 0 75 3 99 13 95 9 -3 12 -39
13 -130z m404 116 c0 -31 -22 -143 -28 -143 -4 0 -28 21 -54 47 -38 37 -48 54
-48 80 l0 33 65 0 c54 0 65 -3 65 -17z m250 -113 l0 -131 -87 3 -88 3 -22 115
c-12 63 -22 121 -22 128 -1 9 27 12 109 12 l110 0 0 -130z m275 83 c-3 -13 -7
-34 -10 -48 -3 -14 -11 -25 -17 -25 -23 0 -58 43 -58 72 0 26 2 27 45 26 40
-2 44 -4 40 -25z m44 -25 c-1 -42 -3 -48 -9 -28 -12 36 -12 80 0 80 6 0 10
-24 9 -52z m-1052 -145 c-2 -13 0 -23 4 -23 5 0 9 -4 9 -10 0 -5 -20 -10 -45
-10 -59 0 -59 -2 -10 195 7 27 10 22 27 -50 10 -44 17 -90 15 -102z m523 72
c10 -47 15 -85 11 -85 -3 1 -19 11 -34 24 l-28 23 12 66 c7 37 14 65 17 62 2
-2 12 -43 22 -90z m515 8 c6 -36 4 -43 -9 -43 -23 0 -29 23 -21 78 8 52 17 42
30 -35z m-596 -87 c-12 -32 -17 -36 -50 -36 l-36 0 -2 88 -2 87 52 -51 51 -51
-13 -37z m542 50 c0 -23 2 -26 7 -13 7 16 9 16 25 -3 9 -11 17 -22 17 -24 0
-3 -25 -4 -55 -3 l-55 1 0 65 0 65 30 -29 c20 -19 30 -39 31 -59z m-493 -55
c29 -25 28 -31 -8 -31 -16 0 -30 5 -30 10 0 6 4 10 10 10 5 0 7 7 4 15 -8 20
-2 19 24 -4z m482 -73 l-1 -53 -29 33 c-40 43 -40 72 0 72 30 0 30 -1 30 -52z
m33 20 c-13 -67 -22 -75 -22 -20 -1 39 3 52 14 52 11 0 13 -8 8 -32z m46 -20
c-1 -42 -3 -48 -9 -28 -12 36 -12 80 0 80 6 0 10 -24 9 -52z m-10 -92 l1 -29
-24 22 c-21 20 -22 25 -12 69 l10 47 12 -40 c7 -22 13 -53 13 -69z m-1089 82
c-2 -35 -28 -122 -38 -126 -9 -3 -12 17 -12 67 0 69 1 71 25 71 14 0 25 -6 25
-12z m40 -20 c0 -36 -4 -35 -14 5 -4 16 -2 27 4 27 5 0 10 -14 10 -32z m40
-38 c0 -32 -4 -62 -10 -65 -6 -4 -10 20 -10 65 0 45 4 69 10 65 6 -3 10 -33
10 -65z m45 0 c0 -42 -4 -65 -12 -67 -10 -4 -13 14 -13 67 0 53 3 71 13 68 8
-3 12 -26 12 -68z m405 45 c0 -26 -20 -127 -26 -134 -3 -3 -27 17 -54 44 -40
39 -50 56 -50 82 l0 33 65 0 c62 0 65 -1 65 -25z m250 -110 l0 -136 -87 3 -87
3 -23 115 c-32 167 -41 150 87 150 l110 0 0 -135z m217 93 c16 -15 23 -33 23
-60 0 -33 -3 -38 -24 -38 -26 0 -36 21 -36 83 0 43 5 45 37 15z m-968 -70 c1
-22 -4 -28 -19 -28 -23 0 -24 10 -8 65 11 38 12 39 19 15 4 -14 7 -37 8 -52z
m541 -33 c10 -47 14 -85 9 -85 -4 0 -20 10 -34 23 -26 22 -26 22 -14 90 7 37
14 65 17 62 2 -2 12 -43 22 -90z m-80 -81 c-11 -37 -14 -39 -48 -39 l-37 1 -3
90 -3 89 52 -51 51 -51 -12 -39z m575 106 c18 -20 17 -20 -8 -20 -20 0 -24 4
-20 20 3 11 6 20 8 20 1 0 10 -9 20 -20z m-43 -92 l1 -43 4 43 c3 28 9 42 19
42 11 0 13 -10 10 -37 -2 -21 -1 -29 1 -19 4 16 7 17 14 5 7 -10 9 -8 7 11 -1
14 2 27 7 30 6 3 11 -18 12 -50 1 -43 0 -50 -7 -30 -7 19 -8 13 -4 -23 9 -78
2 -87 -64 -84 l-56 2 -4 65 -4 65 37 -35 c27 -26 35 -40 30 -57 -3 -13 -1 -23
5 -23 5 0 10 8 10 18 1 16 1 16 14 0 7 -10 17 -18 21 -18 5 0 0 9 -11 21 -11
12 -18 32 -16 47 2 19 0 23 -6 14 -7 -11 -17 -7 -46 18 -49 44 -49 80 1 80 20
0 23 -5 25 -42z m-481 -15 c28 -33 21 -41 -30 -34 -9 1 -2 51 8 51 4 0 13 -8
22 -17z m-8 -80 c2 -5 -3 -43 -11 -86 l-14 -79 -54 53 c-44 43 -54 60 -54 86
l0 33 64 0 c36 0 66 -3 69 -7z m250 -5 c-2 -5 -3 -64 -3 -133 l0 -126 -87 3
c-83 3 -87 4 -94 28 -5 18 -7 20 -8 6 -1 -15 -7 -12 -37 16 l-35 35 12 66 c7
37 15 64 18 61 3 -3 12 -29 18 -57 13 -54 12 -35 -4 71 l-6 43 114 -3 c63 -2
113 -6 112 -10z m-289 -215 c-9 -36 -11 -38 -49 -38 l-40 0 -3 90 -3 90 52
-52 c52 -51 53 -53 43 -90z m526 75 l0 -52 -30 29 c-16 16 -30 39 -30 52 0 19
5 23 30 23 29 0 30 -1 30 -52z m48 20 l12 -33 -5 33 c-3 24 -1 32 11 32 13 0
15 -14 12 -89 l-3 -89 -28 20 c-22 16 -26 25 -21 46 4 21 3 24 -5 12 -8 -11
-11 -1 -11 43 0 66 20 78 38 25z m-48 -126 c0 -41 -1 -43 -27 -40 -27 3 -28 5
-31 73 l-3 70 30 -30 c25 -23 31 -37 31 -73z m-1581 -43 c34 -73 60 -134 57
-136 -2 -3 -33 10 -68 29 l-63 33 -3 103 c-1 56 1 102 6 102 5 0 37 -59 71
-131z m61 71 c0 -59 -1 -60 -28 -60 -24 0 -31 8 -54 60 l-26 60 54 0 54 0 0
-60z m40 35 c0 -18 5 -25 20 -25 16 0 20 -7 20 -35 0 -33 -2 -35 -35 -35 l-35
0 0 60 c0 47 3 60 15 60 9 0 15 -9 15 -25z m99 -41 c24 -51 31 -80 31 -125 l0
-59 -34 0 c-30 0 -35 -4 -39 -27 -2 -16 -5 41 -6 125 0 85 3 152 8 152 5 0 23
-30 40 -66z m31 26 c0 -48 -4 -50 -25 -10 -20 39 -19 50 5 50 17 0 20 -7 20
-40z m888 -44 c3 -11 -24 -17 -44 -9 -10 4 -12 9 -4 18 6 7 7 21 4 31 -5 15
-1 14 18 -6 13 -14 25 -29 26 -34z m521 -40 c-3 -3 -14 -3 -26 0 -15 4 -19 11
-15 26 5 20 5 20 25 -1 12 -11 19 -23 16 -25z m-1501 -93 l3 -83 -26 0 c-22 0
-31 10 -60 72 -19 40 -35 78 -35 86 0 10 15 12 58 10 l57 -3 3 -82z m1442 10
l0 -57 -30 29 c-19 19 -30 39 -30 57 0 24 4 28 30 28 30 0 30 0 30 -57z m37
20 c-3 -21 -3 -29 0 -19 4 15 7 16 15 5 6 -10 7 -4 3 19 -5 26 -3 32 10 32 14
0 16 -13 13 -94 -2 -75 -6 -92 -16 -84 -9 8 -11 7 -6 -6 5 -12 0 -16 -21 -16
-20 0 -25 4 -22 18 3 9 8 35 11 57 4 28 3 34 -4 20 -6 -15 -9 -3 -9 43 -1 51
2 62 15 62 13 0 15 -7 11 -37z m-37 -125 c0 -36 -2 -38 -30 -38 l-30 0 0 67 0
67 30 -29 c23 -22 30 -38 30 -67z m-1725 -98 c3 -5 1 -10 -4 -10 -6 0 -11 5
-11 10 0 6 2 10 4 10 3 0 8 -4 11 -10z"/>
<path d="M7091 1204 c0 -11 3 -14 6 -6 3 7 2 16 -1 19 -3 4 -6 -2 -5 -13z"/>
<path d="M7222 950 c0 -14 2 -19 5 -12 2 6 2 18 0 25 -3 6 -5 1 -5 -13z"/>
<path d="M7691 984 c0 -11 3 -14 6 -6 3 7 2 16 -1 19 -3 4 -6 -2 -5 -13z"/>
<path d="M7722 950 c0 -14 2 -19 5 -12 2 6 2 18 0 25 -3 6 -5 1 -5 -13z"/>
<path d="M7721 724 c0 -11 3 -14 6 -6 3 7 2 16 -1 19 -3 4 -6 -2 -5 -13z"/>
<path d="M7675 2000 c-4 -6 3 -10 14 -10 25 0 27 6 6 13 -8 4 -17 2 -20 -3z"/>
<path d="M7720 2000 c0 -6 7 -10 15 -10 8 0 15 2 15 4 0 2 -7 6 -15 10 -8 3
-15 1 -15 -4z"/>
<path d="M3476 1703 c-3 -16 -13 -115 -22 -222 l-17 -195 21 -14 c11 -7 33
-25 49 -38 15 -13 33 -24 40 -24 6 0 13 -4 15 -8 3 -8 90 -62 120 -74 18 -7
20 1 33 125 l6 57 37 0 c29 0 44 -7 68 -32 48 -51 89 -85 167 -136 129 -85
119 -84 180 -24 57 57 67 61 67 34 0 -13 17 -26 53 -41 28 -12 60 -27 69 -32
27 -14 37 -11 82 23 85 67 79 30 51 339 -14 150 -25 277 -25 281 0 4 -222 8
-494 8 l-494 0 -6 -27z"/>
<path d="M5891 1194 c0 -11 3 -14 6 -6 3 7 2 16 -1 19 -3 4 -6 -2 -5 -13z"/>
<path d="M6001 1194 c0 -11 3 -14 6 -6 3 7 2 16 -1 19 -3 4 -6 -2 -5 -13z"/>
<path d="M6061 1194 c0 -11 3 -14 6 -6 3 7 2 16 -1 19 -3 4 -6 -2 -5 -13z"/>
<path d="M188 1073 c7 -3 16 -2 19 1 4 3 -2 6 -13 5 -11 0 -14 -3 -6 -6z"/>
<path d="M228 1073 c7 -3 16 -2 19 1 4 3 -2 6 -13 5 -11 0 -14 -3 -6 -6z"/>
<path d="M268 1073 c7 -3 16 -2 19 1 4 3 -2 6 -13 5 -11 0 -14 -3 -6 -6z"/>
<path d="M308 1073 c7 -3 16 -2 19 1 4 3 -2 6 -13 5 -11 0 -14 -3 -6 -6z"/>
<path d="M348 1073 c7 -3 16 -2 19 1 4 3 -2 6 -13 5 -11 0 -14 -3 -6 -6z"/>
<path d="M388 1073 c7 -3 16 -2 19 1 4 3 -2 6 -13 5 -11 0 -14 -3 -6 -6z"/>
<path d="M428 1073 c7 -3 16 -2 19 1 4 3 -2 6 -13 5 -11 0 -14 -3 -6 -6z"/>
<path d="M468 1073 c7 -3 16 -2 19 1 4 3 -2 6 -13 5 -11 0 -14 -3 -6 -6z"/>
<path d="M508 1073 c7 -3 16 -2 19 1 4 3 -2 6 -13 5 -11 0 -14 -3 -6 -6z"/>
<path d="M548 1073 c7 -3 16 -2 19 1 4 3 -2 6 -13 5 -11 0 -14 -3 -6 -6z"/>
<path d="M588 1073 c7 -3 16 -2 19 1 4 3 -2 6 -13 5 -11 0 -14 -3 -6 -6z"/>
<path d="M628 1073 c7 -3 16 -2 19 1 4 3 -2 6 -13 5 -11 0 -14 -3 -6 -6z"/>
<path d="M668 1073 c7 -3 16 -2 19 1 4 3 -2 6 -13 5 -11 0 -14 -3 -6 -6z"/>
<path d="M708 1073 c7 -3 16 -2 19 1 4 3 -2 6 -13 5 -11 0 -14 -3 -6 -6z"/>
<path d="M748 1073 c7 -3 16 -2 19 1 4 3 -2 6 -13 5 -11 0 -14 -3 -6 -6z"/>
<path d="M788 1073 c7 -3 16 -2 19 1 4 3 -2 6 -13 5 -11 0 -14 -3 -6 -6z"/>
<path d="M828 1073 c7 -3 16 -2 19 1 4 3 -2 6 -13 5 -11 0 -14 -3 -6 -6z"/>
<path d="M868 1073 c7 -3 16 -2 19 1 4 3 -2 6 -13 5 -11 0 -14 -3 -6 -6z"/>
<path d="M908 1073 c7 -3 16 -2 19 1 4 3 -2 6 -13 5 -11 0 -14 -3 -6 -6z"/>
<path d="M948 1073 c7 -3 16 -2 19 1 4 3 -2 6 -13 5 -11 0 -14 -3 -6 -6z"/>
<path d="M988 1073 c7 -3 16 -2 19 1 4 3 -2 6 -13 5 -11 0 -14 -3 -6 -6z"/>
<path d="M1028 1073 c7 -3 16 -2 19 1 4 3 -2 6 -13 5 -11 0 -14 -3 -6 -6z"/>
<path d="M1068 1073 c7 -3 16 -2 19 1 4 3 -2 6 -13 5 -11 0 -14 -3 -6 -6z"/>
<path d="M1108 1073 c7 -3 16 -2 19 1 4 3 -2 6 -13 5 -11 0 -14 -3 -6 -6z"/>
<path d="M1148 1073 c7 -3 16 -2 19 1 4 3 -2 6 -13 5 -11 0 -14 -3 -6 -6z"/>
<path d="M1188 1073 c7 -3 16 -2 19 1 4 3 -2 6 -13 5 -11 0 -14 -3 -6 -6z"/>
<path d="M1228 1073 c7 -3 16 -2 19 1 4 3 -2 6 -13 5 -11 0 -14 -3 -6 -6z"/>
<path d="M1268 1073 c7 -3 16 -2 19 1 4 3 -2 6 -13 5 -11 0 -14 -3 -6 -6z"/>
<path d="M1308 1073 c7 -3 16 -2 19 1 4 3 -2 6 -13 5 -11 0 -14 -3 -6 -6z"/>
<path d="M1348 1073 c7 -3 16 -2 19 1 4 3 -2 6 -13 5 -11 0 -14 -3 -6 -6z"/>
</g>
</svg>
