<svg xmlns="http://www.w3.org/2000/svg" viewBox="0 0 261.5 261.5" xml:space="preserve">
  <path d="M38 161.7a7.5 7.5 0 0 0 15 0v-58.6a7.5 7.5 0 0 0-12.8-5.3l-19 19a7.5 7.5 0 1 0 10.6 10.6l6.2-6.2v40.5zM82.3 31.8l6.2-6.2v40.5a7.5 7.5 0 0 0 15 0V7.5a7.5 7.5 0 0 0-12.8-5.3l-19 19a7.5 7.5 0 1 0 10.6 10.6zm85.5 64.3c-2.8-1.1-6-.5-8.2 1.7l-19 19a7.5 7.5 0 1 0 10.6 10.6l6.2-6.2v40.5a7.5 7.5 0 0 0 15 0v-58.6c0-3-1.8-5.8-4.6-7zm-32.6 92.3c-2.8-1.1-6-.5-8.2 1.7l-19 19a7.5 7.5 0 1 0 10.6 10.6l6.2-6.2v22.2a7.5 7.5 0 0 0 15 0v-40.3c0-3-1.8-5.8-4.6-7zm-12.7-45v-22a25.8 25.8 0 0 0-25.8-25.8h-.3a25.8 25.8 0 0 0-25.8 25.7v22.1a25.8 25.8 0 0 0 25.8 25.8h.3a25.8 25.8 0 0 0 25.8-25.8zm-15 0c0 6-4.8 10.8-10.8 10.8h-.3c-6 0-10.8-4.8-10.8-10.8v-22c0-6 4.8-10.8 10.8-10.8h.3c6 0 10.8 4.8 10.8 10.7v22.1zm109.2-47.8h-.3a25.8 25.8 0 0 0-25.8 25.7v22.1a25.8 25.8 0 0 0 25.8 25.8h.3a25.8 25.8 0 0 0 25.8-25.8v-22a25.8 25.8 0 0 0-25.8-25.8zm10.8 47.8c0 6-4.8 10.8-10.8 10.8h-.3c-6 0-10.8-4.8-10.8-10.8v-22c0-6 4.8-10.8 10.8-10.8h.3c6 0 10.8 4.8 10.8 10.7v22.1zM147.2 0h-.3A25.8 25.8 0 0 0 121 25.8v22a25.8 25.8 0 0 0 25.8 25.8h.3a7.5 7.5 0 0 0 0-15h-.3c-6 0-10.8-4.8-10.8-10.7V25.8c0-6 4.8-10.8 10.8-10.8h.3c6 0 10.8 4.8 10.8 10.8a7.5 7.5 0 0 0 15 0A25.8 25.8 0 0 0 147.2 0zm69.5 0h-.3a25.8 25.8 0 0 0-25.8 25.8v22a25.8 25.8 0 0 0 25.8 25.8h.3A25.8 25.8 0 0 0 242.5 48V25.8A25.8 25.8 0 0 0 216.7 0zm10.8 47.9c0 5.9-4.8 10.7-10.8 10.7h-.3c-6 0-10.8-4.8-10.8-10.7V25.8c0-6 4.8-10.8 10.8-10.8h.3c6 0 10.8 4.8 10.8 10.8v22zm-165.8 140h-.4a25.8 25.8 0 0 0-25.8 25.7v22.1a25.8 25.8 0 0 0 25.8 25.8h.4a25.8 25.8 0 0 0 25.8-25.8v-22a25.8 25.8 0 0 0-25.8-25.8zm10.8 47.8c0 6-4.9 10.8-10.8 10.8h-.4c-6 0-10.8-4.8-10.8-10.8v-22c0-6 4.9-10.8 10.8-10.8h.4c6 0 10.8 4.8 10.8 10.7v22.1z" fill="#ffffff"/>
</svg>