
<svg xmlns="http://www.w3.org/2000/svg" viewBox="0 0 512 512" xml:space="preserve">
  <path d="M201.5 470.8c0-47.9-39.2-87-87-87-47.9 0-87 39.1-87 87a27 27 0 0 0 27 27h120a27 27 0 0 0 27-27z" fill="none"/>
  <g fill="#ffffff">
    <path d="M174.5 512h-120a41.3 41.3 0 0 1-41.2-41.2 101.3 101.3 0 0 1 202.4 0 41.3 41.3 0 0 1-41.2 41.2zm-60-114a72.8 72.8 0 0 0-72.8 72.7c0 7 5.8 12.8 12.8 12.8h120c7 0 12.7-5.7 12.7-12.8a72.8 72.8 0 0 0-72.7-72.7z"/>
    <path d="M114.5 397a77.7 77.7 0 1 1 .2-155.5 77.7 77.7 0 0 1-.2 155.5zm0-126.8a49.2 49.2 0 1 0 0 98.4 49.2 49.2 0 0 0 0-98.4z"/>
  </g>
  <path d="M484.5 470.8c0-47.9-39.1-87-87-87-47.8 0-87 39.1-87 87a27 27 0 0 0 27 27h120a27 27 0 0 0 27-27z" fill="none"/>
  <g fill="#ffffff">
    <path d="M457.5 512h-120a41.3 41.3 0 0 1-41.2-41.2 101.3 101.3 0 0 1 202.4 0 41.3 41.3 0 0 1-41.2 41.2zm-60-114a72.8 72.8 0 0 0-72.7 72.7c0 7 5.7 12.8 12.7 12.8h120c7 0 12.8-5.7 12.8-12.8a72.8 72.8 0 0 0-72.8-72.7z"/>
    <path d="M397.5 397a77.7 77.7 0 1 1 .2-155.5 77.7 77.7 0 0 1-.2 155.5zm0-126.8a49.2 49.2 0 1 0 .1 98.4 49.2 49.2 0 0 0 0-98.4zm-25.3-44.4c-5 0-10-2-13.8-5.6l-47.7-45.8a14.2 14.2 0 1 1 19.8-20.6l35.2 34 3-25.3a14 14 0 0 1 14-12.6h31.5V28.5H97.8v121.4h31.4c7.3 0 13.3 5.4 14.2 12.6l2.9 25.2 35.2-33.9a14.2 14.2 0 0 1 19.8 20.6l-47.7 45.8c-5.5 5.3-13.4 7-20.6 4.4a19.8 19.8 0 0 1-13-16.5l-3.5-29.8H95.6A26.3 26.3 0 0 1 69.3 152V26.3A26.3 26.3 0 0 1 95.6 0h320.8a26.3 26.3 0 0 1 26.3 26.3V152a26.3 26.3 0 0 1-26.3 26.3h-21l-3.4 29.8a19.8 19.8 0 0 1-19.8 17.7z"/>
    <path d="M264 178.3h-16a14.2 14.2 0 1 1 0-28.4h16a14.2 14.2 0 1 1 0 28.4z"/>
  </g>
</svg>