<svg width="24" height="24" fill="none" xmlns="http://www.w3.org/2000/svg">
  <path d="M5.6 2c.2.2.4.5.4.8 0 .8.3 1.3.7 1.8.4.6.8 1.2.8 2.2 0 .9-.5 1.7-1.2 2.2l.5.6c.5.8.7 2 .7 3.7a26 26 0 0 1-1.3 7.5 3 3 0 0 1-.5.8 1.3 1.3 0 0 1-1.9 0 3 3 0 0 1-.5-.8l-.7-2.1a26 26 0 0 1-.6-5.4 7 7 0 0 1 .7-3.7l.5-.6A2.7 2.7 0 0 1 2 6.8c0-.4 0-1 .4-1.9a7 7 0 0 1 2.4-2.7c.2-.2.5-.3.8-.1ZM3.5 6.8a1.3 1.3 0 0 0 2.5 0c0-.4-.2-.7-.5-1.2-.3-.4-.6-.8-.7-1.3a5 5 0 0 0-1 1.4c-.3.5-.3.9-.3 1.1Zm.5 3.7c-.3.4-.5 1.2-.5 2.9A24.6 24.6 0 0 0 4.6 20l.2.2V20A20.7 20.7 0 0 0 6 13.2c0-1.7-.2-2.5-.5-2.9a.8.8 0 0 0-.3-.3 1 1 0 0 0-.5-.1 1 1 0 0 0-.4 0l-.3.4Zm6 4.5a6 6 0 0 1-1.5-.6 23.1 23.1 0 0 0 0-1.7c.4.3 1 .6 1.5.7v-2.9c0-.8.7-1.5 1.5-1.5h4a4.5 4.5 0 0 0-7.2-3.6l-.7-1.2V4A6 6 0 0 1 17 9h3.4c.8 0 1.5.7 1.5 1.5v9c0 .8-.7 1.5-1.5 1.5h-9c-.8 0-1.5-.7-1.5-1.5v-4.6Zm1.5 0v4.5h9v-9h-3.7a6 6 0 0 1-5.3 4.5Zm3.7-4.5h-3.7v3a4.5 4.5 0 0 0 3.7-3Z" fill="#ffffff"/>
</svg>