<svg xmlns="http://www.w3.org/2000/svg" viewBox="0 0 512 512" xml:space="preserve">
  <path d="M240.8 113.4H139.4v134h101.4v59.8h131.8V113.3H240.8zM190 216.9h-20.3v-73H190v73zm50.7 0h-20.3v-73h20.3v73zm101.4 59.8h-71v-29.4h71v29.4zm0-59.8h-71v-73h71v73z" fill="#ffffff"/>
  <path d="M490.2 71.5V41h-219V0h-30.4v41h-219v30.5h22.3V349H21.8v30.4h134.3l-26.5 126.2 29.8 6.3 15.5-74h65.9v74h30.4v-74h65.9l15.5 74 29.8-6.3-26.6-126.2h134.4V349h-22.3V71.5h22.3zm-249.4 336h-59.5l6-28h53.5v28zm30.4 0v-28h53.6l5.9 28h-59.5zm166.3-58.4h-363V71.5h363V349z" fill="#ffffff"/>
</svg>